<?xml version="1.0" standalone="no"?>
<!DOCTYPE svg PUBLIC "-//W3C//DTD SVG 1.1//EN" "http://www.w3.org/Graphics/SVG/1.1/DTD/svg11.dtd" >
<svg xmlns="http://www.w3.org/2000/svg">
<metadata>
This is a custom SVG webfont generated by Font Squirrel.
Copyright   : Copyright  1994 2001 Adobe Systems Incorporated  All Rights Reserved
Designer    : Frederic W Goudy
Foundry URL : httpwwwadobecomtype
</metadata>
<defs>
<font id="ITCGoudySansStdBold" horiz-adv-x="1058" >
<font-face units-per-em="2048" ascent="1462" descent="-586" />
<missing-glyph horiz-adv-x="512" />
<glyph unicode=" "  horiz-adv-x="512" />
<glyph unicode="&#x09;" horiz-adv-x="512" />
<glyph unicode="&#xa0;" horiz-adv-x="512" />
<glyph unicode="!" horiz-adv-x="694" d="M172 152q0 70 49 117.5t115 47.5q68 0 117 -48t49 -117.5t-49.5 -118.5t-117 -49t-115.5 48t-48 120zM184 1352l332 18l-45 -862l-266 -70z" />
<glyph unicode="&#x22;" d="M221 831l33 535h242l-136 -535h-139zM563 831l33 535h244l-135 -535h-142z" />
<glyph unicode="#" d="M82 395l27 166h143l29 195h-142l25 166h143l55 360h177l-58 -360h178l56 360h176l-57 -360h143l-27 -166h-141l-31 -195h144l-27 -166h-143l-62 -395h-172l62 395h-181l-61 -395h-174l61 395h-143zM424 557h180l31 203h-180z" />
<glyph unicode="$" d="M127 152l14 178q160 -113 328 -113q72 0 114 29.5t50 56.5t8 53q0 55 -43 97.5t-195 134.5q-106 66 -151 99.5t-81 93t-36 139t29 140t81 94.5t91 50.5t94 30.5v164h217v-150q190 -14 232 -55q20 -20 12 -57l-45 -174q-147 76 -268 75q-147 0 -148 -106q0 -45 43 -80 t168 -111q160 -96 227.5 -170.5t67.5 -195.5q0 -125 -72.5 -221.5t-216.5 -135.5v-206l-217 -25v217q-219 16 -285 74q-24 23 -18 74z" />
<glyph unicode="%" horiz-adv-x="1716" d="M63 883q0 92 29 177t102.5 149.5t178.5 64.5q152 0 230.5 -119t78.5 -272q0 -162 -85 -274.5t-224.5 -112.5t-224.5 112.5t-85 274.5zM287 895q0 -225 86 -225t86 221q0 209 -86 209t-86 -205zM412 -55l702 1341h178l-700 -1341h-180zM1034 379q0 150 78 270.5t231 120.5 q152 0 231 -120t79 -273q0 -162 -85 -274.5t-224.5 -112.5t-224.5 113.5t-85 275.5zM1257 389q0 -225 86.5 -225t86.5 221q0 211 -86.5 211t-86.5 -207z" />
<glyph unicode="&#x26;" horiz-adv-x="1642" d="M86 469q0 272 279 354q-33 14 -50.5 23.5t-49.5 35t-48 64.5t-16 92q0 137 135 238.5t418 101.5q207 0 274 -37q20 -10 21 -38q0 -20 -9 -41l-73 -168q-106 47 -246 47q-68 0 -114 -14.5t-64.5 -37t-25.5 -40t-7 -35.5q0 -98 160 -99q57 0 135 17l-88 -246 q-172 -6 -241.5 -72.5t-69.5 -150.5q0 -111 92 -174.5t247 -63.5q172 0 276.5 65.5t104.5 178.5q0 70 -39.5 101.5t-99.5 31.5q-37 0 -102 -18l18 155q4 45 20.5 54.5t75.5 9.5h396q119 0 221 20l-45 -182q-6 -25 -12.5 -36t-28 -20.5t-62.5 -9.5h-110q47 -78 47 -145 q0 -78 -41 -154.5t-121 -144.5t-216 -111t-306 -43q-178 0 -309 47.5t-199 124t-97.5 156.5t-29.5 164z" />
<glyph unicode="'" horiz-adv-x="694" d="M209 831l33 535h243l-135 -535h-141z" />
<glyph unicode="(" horiz-adv-x="802" d="M100 489q0 199 43 364t103.5 260t130 160.5t117 90.5t69.5 25q37 0 74 -37l86 -101q-307 -215 -307 -749q0 -336 116 -537q63 -113 181 -198l-86 -111q-31 -39 -54 -39q-33 0 -114.5 55.5t-151.5 139.5q-207 253 -207 677z" />
<glyph unicode=")" horiz-adv-x="802" d="M80 1251l86 101q33 37 67 37q45 0 112 -47.5t126 -112.5q231 -266 231 -740q0 -512 -296 -768q-119 -104 -177 -104q-23 0 -53 39l-86 113q141 98 213 260q84 188 84 473q0 534 -307 749z" />
<glyph unicode="*" d="M131 1055q0 16 10 49l35 115q74 -51 258 -109q-25 143 -24 176q0 57 23.5 70.5t92.5 13.5h140q-43 -74 -43 -252q152 78 194.5 78t69.5 -55l61 -123q-115 -20 -243 -74q94 -104 108 -121q20 -31 21 -43q0 -35 -39 -57l-133 -80q-16 39 -142 242q-88 -164 -108 -195 q-25 -37 -56 -37q-20 0 -57 21l-133 74q96 63 180 196q-109 27 -152.5 42t-53 27.5t-9.5 41.5z" />
<glyph unicode="+" horiz-adv-x="1024" d="M51 412v213h355v411h212v-411h355v-213h-355v-412h-212v412h-355z" />
<glyph unicode="," horiz-adv-x="620" d="M119 -205q154 76 172 197q-113 47 -113 147q0 66 49 113t119 47t112 -50t42 -126q0 -127 -96.5 -228.5t-272.5 -127.5z" />
<glyph unicode="-" horiz-adv-x="694" d="M80 354v250h534v-250h-534z" />
<glyph unicode="." horiz-adv-x="620" d="M145 151.5q0 69.5 49.5 117.5t117 48t115.5 -48t48 -117.5t-48 -118.5t-115.5 -49t-117 49t-49.5 118.5z" />
<glyph unicode="/" horiz-adv-x="731" d="M84 -31l399 1428h205l-405 -1428h-199z" />
<glyph unicode="0" d="M63 631q0 88 15.5 175t51.5 174t88 152.5t132 106.5t178 41q121 0 215.5 -61.5t146.5 -159.5t78.5 -208t26.5 -222q0 -266 -127 -455.5t-340 -189.5q-209 0 -337 188.5t-128 458.5zM358 643q0 -84 5.5 -147.5t21.5 -131t52 -104.5t91.5 -37t91 37t52 104.5t21.5 130 t5 144.5q0 401 -170 401t-170 -397z" />
<glyph unicode="1" d="M344 1223l354 55q-20 -117 -20 -238v-702q0 -156 8 -218.5t35 -119.5h-369q27 59 35 121.5t8 216.5v686q0 98 -11 135t-40 64z" />
<glyph unicode="2" d="M57 129q219 211 416 481q150 207 150 310q0 113 -140 112q-170 0 -344 -119l-43 172l-2 17q-4 16 -4 22q0 63 154 109q152 47 297 47q35 0 64.5 -2t93 -18.5t107.5 -45t80 -90t36 -147.5q0 -176 -177 -418q-117 -160 -278 -321l330 10q106 4 182 37l-72 -213 q-16 -49 -41.5 -60.5t-122.5 -11.5q-31 0 -180 2t-172 2q-238 0 -332 -4z" />
<glyph unicode="3" d="M109 96q0 18 4 31l39 174q129 -70 243 -70q109 0 181.5 54.5t72.5 150.5q0 49 -17.5 89t-51 66.5t-65.5 45t-80 31t-71.5 17.5t-62.5 11q266 94 266 230q0 45 -34.5 78.5t-118.5 33.5q-117 0 -273 -69l-12 186q-4 45 21 64q12 8 44.5 20t114.5 26.5t172 14.5 q172 0 280.5 -69.5t108.5 -223.5q0 -184 -172 -276q242 -100 242 -322q0 -182 -148.5 -293.5t-390.5 -111.5q-217 0 -274 57q-18 18 -18 55z" />
<glyph unicode="4" d="M16 229v172l592 863h238v-809h55q47 0 82 22v-180q0 -45 -16.5 -56.5t-61.5 -11.5h-59v-258q-2 -55 -5 -74.5t-17.5 -31.5t-49.5 -21l-252 -49q49 131 49 266v168h-555zM279 455h315q4 293 12 522z" />
<glyph unicode="5" d="M92 137l8 185q119 -94 273 -95q121 0 189.5 61.5t68.5 153.5q0 117 -96.5 193t-264.5 76q-39 0 -94 -4l74 555q352 -8 645 71l-14 -162q-2 -39 -15.5 -61.5t-56.5 -34.5q-127 -41 -350 -47l-15 -127q479 -57 480 -440q0 -221 -154 -349t-383 -128q-92 0 -182 21.5 t-105 47.5q-8 14 -8 84z" />
<glyph unicode="6" d="M100 528q0 268 133.5 460t331.5 310q59 37 101 27l280 -72q-219 -88 -332 -188q-123 -115 -178 -234q90 45 182 46q154 0 257.5 -116t103.5 -310q0 -209 -122 -338t-316 -129q-203 0 -322 152t-119 392zM391 459q0 -92 39 -165t115 -73q70 0 104.5 65.5t34.5 157.5 q0 98 -38 158t-103 60q-78 0 -115 -58.5t-37 -144.5z" />
<glyph unicode="7" d="M135 975l12 209q4 49 30 64.5t108 15.5h768q-250 -322 -365 -618t-115 -513q0 -92 25 -211l-254 31q-47 6 -61.5 29.5t-14.5 95.5q0 205 99 461q86 221 260 487q-387 -14 -408 -16q-45 -4 -84 -35z" />
<glyph unicode="8" d="M78 348q0 104 51 181t162 139q-182 115 -182 276q0 147 112.5 241.5t313.5 94.5q182 0 294.5 -85t112.5 -232q0 -63 -19.5 -115.5t-56.5 -87.5t-59.5 -51.5t-56.5 -36.5q41 -18 68.5 -36t71.5 -54.5t67.5 -94t23.5 -131.5q0 -166 -126 -269t-325 -103q-184 0 -318 93 t-134 271zM360 348q0 -57 40 -103t128 -46q84 0 126 45t42 110q0 53 -28.5 100.5t-56 69t-81.5 56.5q-170 -111 -170 -232zM383 942q0 -57 26.5 -93t108.5 -110q152 94 152 219q0 51 -35 90t-103 39q-74 0 -111.5 -41t-37.5 -104z" />
<glyph unicode="9" d="M96 23q395 63 537 407q-92 -41 -178 -41q-172 0 -264.5 127t-92.5 301q0 195 113 329t330 134q115 0 202.5 -50t136 -132t72 -172t23.5 -185q0 -227 -121 -449t-332 -329q-98 -49 -137 -49q-16 0 -49 14zM393 825q0 -96 39 -159.5t107 -63.5q72 0 108.5 59.5t36.5 135.5 q0 104 -39 174.5t-115 70.5q-53 0 -95 -51t-42 -166z" />
<glyph unicode=":" horiz-adv-x="620" d="M145 151.5q0 69.5 49.5 117.5t117 48t115.5 -48t48 -117.5t-48 -118.5t-115.5 -49t-117 49t-49.5 118.5zM145 803q0 70 48.5 119t117.5 49q68 0 116 -48.5t48 -118t-48 -118.5t-116 -49q-70 0 -118 49t-48 117z" />
<glyph unicode=";" horiz-adv-x="620" d="M117 -205q154 76 172 197q-113 47 -113 147q0 66 49 112t119 46t112 -50t42 -126q0 -123 -96.5 -224.5t-272.5 -129.5zM172 805q0 70 49 118t115 48q68 0 117 -48.5t49 -118t-49.5 -118.5t-117 -49t-115.5 48t-48 120z" />
<glyph unicode="&#x3c;" horiz-adv-x="1024" d="M51 430v176l905 395v-213l-628 -270l628 -270v-213z" />
<glyph unicode="=" horiz-adv-x="1024" d="M51 188v213h922v-213h-922zM51 635v213h922v-213h-922z" />
<glyph unicode="&#x3e;" horiz-adv-x="1024" d="M68 35v213l628 270l-628 270v213l905 -395v-176z" />
<glyph unicode="?" horiz-adv-x="839" d="M59 1202q0 59 102.5 119.5t252.5 60.5q168 0 243.5 -81.5t75.5 -198.5q0 -80 -27.5 -137.5t-101.5 -161.5q-96 -133 -96 -250q0 -41 8 -86l-276 27q-14 195 79 323q76 106 94.5 139t18.5 70q0 102 -98 102q-86 0 -144 -92l-98 99q-33 32 -33 67zM217 152q0 70 49 117.5 t115 47.5q68 0 117 -48t49 -117.5t-49 -118.5t-117 -49t-116 48t-48 120z" />
<glyph unicode="@" horiz-adv-x="1607" d="M127 674q0 289 208 502t517 213q266 0 446.5 -166t180.5 -408q0 -225 -142.5 -376.5t-298.5 -151.5q-121 0 -151 119q-106 -125 -238 -125q-102 0 -167.5 80.5t-65.5 195.5q0 180 125 349t286 169q125 0 195 -96l20 65q76 0 168 9l-155 -516q-25 -74 -25 -101 q0 -59 57 -59q76 0 184.5 126t108.5 302q0 201 -150.5 344t-379.5 143q-152 0 -274.5 -62.5t-194.5 -158.5t-110 -201.5t-38 -203.5q0 -233 171 -410.5t419 -177.5q92 0 171 23.5t140.5 68.5t94.5 75.5t74 78.5l110 -9q-33 -45 -55.5 -72.5t-81.5 -84t-117.5 -90t-151 -62.5 t-192.5 -29q-289 0 -488.5 206t-199.5 491zM582 481q0 -51 25.5 -86t72.5 -35q66 0 121 70t88 168l80 244q6 14 6 35q0 16 -4 37.5t-27.5 51t-66.5 29.5q-84 0 -156 -101t-105.5 -218t-33.5 -195z" />
<glyph unicode="A" horiz-adv-x="1425" d="M66 0v66q0 250 107.5 544.5t336.5 542.5q-143 0 -305 -43q80 135 119 260q41 -4 174 -4h444q211 -305 310.5 -669.5t99.5 -622.5v-74h-353q23 78 23 168q0 133 -25 274h-561q-45 -139 -45 -297q0 -55 15 -145h-340zM508 680h442q-53 272 -155 453h-15 q-184 -199 -272 -453z" />
<glyph unicode="B" horiz-adv-x="1132" d="M104 0q35 63 45.5 117.5t10.5 181.5v780q0 70 -2 104t-11.5 78t-29.5 82l295 43q10 -31 20 -77q127 57 223 57q176 0 264.5 -105.5t88.5 -252.5q0 -59 -13.5 -106.5t-42 -81.5t-46 -49t-50.5 -40q203 -94 203 -313q0 -176 -129 -297t-350 -121q-23 0 -142 2t-139 2 q-60 0 -195 -4zM455 225q68 -6 77 -6q115 0 172.5 56.5t57.5 150.5q0 199 -230 199q-31 0 -77 -2v-398zM455 819q68 -6 77 -6q88 0 145.5 44t57.5 132q0 78 -49 120t-117 42q-49 0 -114 -35v-297z" />
<glyph unicode="C" horiz-adv-x="1241" d="M78 674q0 469 319 631q150 78 344 77q141 0 274.5 -34.5t166.5 -57.5q14 -10 14 -20q0 -8 -12 -45l-68 -211q-152 113 -334 112q-180 0 -281.5 -116.5t-101.5 -325.5q0 -201 93.5 -322.5t281.5 -121.5q193 0 406 153v-243q0 -33 -3 -44.5t-15.5 -23.5t-43.5 -27 q-158 -72 -354 -71q-352 0 -519 190.5t-167 499.5z" />
<glyph unicode="D" horiz-adv-x="1388" d="M111 1372q57 -4 100 -4q35 -2 98 -2h309q160 0 264.5 -18.5t188.5 -75.5q104 -74 172 -222.5t68 -355.5q0 -80 -13.5 -156.5t-46 -169t-104.5 -172t-176 -130.5q-131 -66 -393 -66q-23 0 -138.5 2t-134.5 2q-84 0 -190 -4q35 63 45 117.5t10 181.5v776q0 92 -8 150.5 t-18 83t-33 63.5zM483 250q254 0 330 35q182 82 182 395q0 262 -118 371q-80 74 -250 73q-70 0 -144 -6v-868z" />
<glyph unicode="E" horiz-adv-x="1021" d="M113 1372q8 0 61 -4q10 0 46 -1t63 -1h522q55 0 65.5 -7t12.5 -52l12 -211q-57 25 -160 24h-256v-280h199q68 0 127 12v-258q-51 6 -148 6h-178v-352h291q119 0 197 24l-45 -211q-8 -45 -24.5 -53t-84.5 -8q-35 0 -207 2t-198 2q-45 0 -291 -4q33 57 44 111.5t11 185.5 v776q0 127 -13 183.5t-46 115.5z" />
<glyph unicode="F" horiz-adv-x="950" d="M111 1372q8 0 61 -4q10 0 46 -1t63 -1h536q37 0 48.5 -11.5t13.5 -60.5l16 -196q-80 25 -158 24h-258v-286h195q86 0 137 12v-260q-53 8 -139 8h-193v-297q0 -123 10.5 -178t45.5 -121h-420q33 61 44 116.5t11 182.5v776q0 92 -9 150.5t-18 83t-32 63.5z" />
<glyph unicode="G" horiz-adv-x="1314" d="M76 678q0 451 313 622q150 82 375 82q227 0 397 -79q33 -12 33 -33q0 -10 -10 -43l-62 -207q-168 111 -350 110q-111 0 -188.5 -40.5t-116.5 -110.5t-54.5 -137.5t-15.5 -143.5q0 -252 125 -376q76 -74 211 -74q88 0 166 35v149q0 195 -39 297h381q-23 -39 -33 -63.5 t-18 -83t-8 -150.5v-348q-229 -100 -457 -100q-168 0 -296 56t-203.5 154.5t-112.5 220.5t-37 263z" />
<glyph unicode="H" horiz-adv-x="1425" d="M113 1366h434q-23 -37 -33 -62.5t-18.5 -84t-8.5 -150.5v-217h449v217q0 92 -8 150.5t-18.5 84t-32.5 62.5h436q-23 -39 -33 -63.5t-18.5 -83t-8.5 -150.5v-772q0 -123 10.5 -178.5t45.5 -118.5h-428q33 57 44 112.5t11 184.5v287h-449v-287q0 -125 10.5 -180.5 t45.5 -116.5h-426q33 57 44 112.5t11 184.5v772q0 92 -9 150.5t-18 83t-32 63.5z" />
<glyph unicode="I" horiz-adv-x="657" d="M113 1366h434q-23 -39 -33 -63.5t-18.5 -83t-8.5 -150.5v-770q0 -123 10.5 -178t45.5 -121h-426q35 61 45 115.5t10 183.5v770q0 92 -9 151.5t-18 83t-32 62.5z" />
<glyph unicode="J" horiz-adv-x="657" d="M-55 33q68 -98 147 -99q27 0 44.5 9.5t26.5 21.5t13 41t5 49.5t1 67.5v946q0 92 -9 150.5t-18.5 83t-31.5 63.5h434q-23 -39 -33 -64.5t-18 -84t-8 -148.5v-1008q0 -70 -2 -106.5t-18.5 -94t-47.5 -87t-93.5 -53t-152.5 -23.5q-150 0 -225 55q-14 10 -14 51v230z" />
<glyph unicode="K" horiz-adv-x="1388" d="M111 1366h434q-23 -37 -33 -61.5t-18.5 -84t-8.5 -151.5v-285q160 225 461 484q115 100 152 100q25 0 43 -14l192 -146q-283 -168 -571 -483q195 -221 471 -442q102 -82 197 -115l-232 -158q-39 -27 -70 -26q-29 0 -53 14t-76 61q-190 174 -454 484l-60 -66v-178 q0 -125 10.5 -181.5t45.5 -117.5h-426q35 63 45 117.5t10 181.5v770q0 92 -9 151.5t-18 83t-32 62.5z" />
<glyph unicode="L" horiz-adv-x="950" d="M113 1366h434q-23 -39 -32 -63.5t-18.5 -83t-9.5 -150.5v-817h310q94 0 178 27l-35 -199q-10 -55 -24.5 -67.5t-69.5 -12.5q-27 0 -165 2t-161 2q-270 0 -403 -4q33 61 44 116.5t11 182.5v770q0 92 -9 150.5t-18 83t-32 63.5z" />
<glyph unicode="M" horiz-adv-x="1789" d="M113 1366h333l453 -917l463 917h315q-23 -39 -32 -63.5t-18 -83t-9 -150.5v-770q0 -127 10 -181.5t45 -117.5h-389q25 63 33 105t10 161l14 639l-438 -911h-43l-418 911l25 -614q4 -145 9 -188.5t28 -102.5h-387q33 59 44 114.5t11 184.5v770q0 92 -9 150.5t-18 83 t-32 63.5z" />
<glyph unicode="N" horiz-adv-x="1607" d="M113 1366h364l676 -922l-16 633q-2 137 -10.5 180t-36.5 109h405q-23 -39 -33 -63.5t-18 -83t-8 -150.5v-721q0 -229 12 -348h-254l-725 977l12 -658q4 -199 43 -319h-395q35 63 45 118.5t10 180.5v727q0 135 -16 202.5t-55 137.5z" />
<glyph unicode="O" horiz-adv-x="1533" d="M76 692q0 338 198 527q174 164 482 163q342 0 506 -163q197 -193 196 -527q0 -309 -145 -495q-168 -213 -545 -213q-465 0 -614 329q-78 174 -78 379zM397 682q0 -203 82 -315q92 -129 289 -129q74 0 156 28.5t133 100.5q82 113 82 315q0 76 -13.5 141.5t-48.5 140 t-114.5 118.5t-194.5 44q-94 0 -163.5 -31.5t-108.5 -76.5t-62.5 -109.5t-30 -117t-6.5 -109.5z" />
<glyph unicode="P" horiz-adv-x="1095" d="M102 1372q87 -9 174 -8h35q29 0 159 1t132 1q254 0 359 -119q104 -117 104 -305q0 -231 -145.5 -343t-366.5 -112q-31 0 -76 5v-193q0 -125 9.5 -179t45.5 -120h-426q33 59 44.5 113.5t11.5 185.5v768q0 86 -7.5 141.5t-17.5 83t-35 80.5zM467 723q22 -1 42 -1 q124 0 190 43q77 50 77 173q0 205 -225 205q-31 0 -84 -6v-414z" />
<glyph unicode="Q" horiz-adv-x="1533" d="M76 678q0 82 13 162t46 171t102.5 171t170.5 129q145 72 360 71q340 0 510 -178q180 -188 180 -516q0 -242 -98 -414q-41 -74 -119 -131q90 -29 175 -87t85 -91q0 -29 -24 -45l-246 -147q-10 104 -113 161q-90 49 -233 50q-113 0 -170.5 2t-135 14t-145.5 39 q-109 43 -185.5 123t-111.5 176t-48 177t-13 163zM395 672q0 -209 97.5 -324t275.5 -115q373 0 373 443q0 90 -17.5 164.5t-57.5 141.5t-116 103.5t-182 36.5q-104 0 -181 -40t-112 -90t-55.5 -124.5t-22.5 -111.5t-2 -84z" />
<glyph unicode="R" horiz-adv-x="1277" d="M113 1372q82 -8 282 -8h37h58q32 0 62 1t50 1h21q217 0 340 -106q127 -113 127 -304q0 -221 -183 -348q141 -219 226 -315q86 -98 208 -166l-219 -119q-43 -25 -84 -24q-63 0 -141 112q-137 184 -274 443q-48 -9 -100 -10q-17 0 -36 1v-231q0 -123 9.5 -178t46.5 -121 h-426q33 63 44 117.5t11 181.5v776q0 92 -9 150.5t-18 83t-32 63.5zM477 764q37 -2 66 -2q33 0 61.5 4t79.5 19.5t83 58.5t32 108q0 193 -254 193q-33 0 -68 -6v-375z" />
<glyph unicode="S" horiz-adv-x="1021" d="M80 154l16 196q170 -121 332 -121q94 0 143 50q45 41 45 108q0 63 -42 104t-185 136q-172 115 -235.5 188.5t-63.5 198.5q0 131 77 218t178 118.5t220 31.5q100 0 196.5 -21.5t127.5 -39.5q14 -10 14 -27q0 -18 -10 -55l-45 -178q-147 84 -275 84q-82 0 -118.5 -38 t-36.5 -79q0 -55 46 -96t220 -152q145 -94 203.5 -182t58.5 -201q0 -162 -117.5 -287.5t-355.5 -125.5q-129 0 -251 32.5t-140 67.5q-5 11 -5 32q0 16 3 38z" />
<glyph unicode="T" horiz-adv-x="1277" d="M-12 1092l75 208q14 45 32 55.5t77 10.5h879q166 0 241 6l-61 -188q-14 -47 -30.5 -55.5t-86.5 -8.5h-321v-821q0 -123 10 -178t45 -121h-426q35 63 45 117.5t10 181.5v821h-278q-96 1 -211 -28z" />
<glyph unicode="U" horiz-adv-x="1533" d="M131 547q0 209 59 545q20 133 21 184q0 47 -8 90h395q-164 -385 -164 -778q0 -66 9.5 -117t39 -111.5t98 -94.5t173.5 -34q160 0 282 95v743q0 92 -9 151.5t-18.5 83t-31.5 62.5h434q-23 -37 -33 -62.5t-18 -84t-8 -150.5v-692q0 -147 25.5 -213t80.5 -113l-321 -69 q-49 61 -60 84q-156 -94 -356 -95q-250 0 -404 117q-186 140 -186 459z" />
<glyph unicode="V" horiz-adv-x="1425" d="M-31 1366h408q12 -59 84 -215l278 -629l295 654q55 129 68 190h401q-102 -113 -229 -358l-533 -1026h-53l-459 958q-149 297 -260 426z" />
<glyph unicode="W" horiz-adv-x="2117" d="M-25 1366h404q-1 -7 -1 -16q0 -54 44 -160l264 -660l229 488l-61 137q-45 121 -119 211h395q-6 -20 -6 -39q0 -53 31 -131l246 -680l285 649q49 109 49 160q0 6 -6 41h415q-55 -61 -98 -131t-117 -217l-538 -1043h-35l-324 768l-362 -768h-35l-477 1049 q-115 250 -183 342z" />
<glyph unicode="X" horiz-adv-x="1533" d="M39 1366h481q14 -78 66.5 -169t195.5 -296q104 92 187.5 217t105.5 248h350q-96 -336 -487 -664q59 -76 132 -169t110 -140t84 -107.5t70.5 -90t53 -64.5t47 -54.5t37 -40t37.5 -36.5h-462q-20 90 -91 208t-227 343q-313 -330 -313 -551h-359q129 430 521 727 q-260 330 -366.5 457t-172.5 182z" />
<glyph unicode="Y" horiz-adv-x="1241" d="M-6 1366h455q4 -80 63 -211l145 -328l170 340q31 61 44.5 98.5t12.5 57.5t-3 43h417q-117 -150 -211 -326q-395 -721 -491 -868q-70 -102 -113 -141q-35 -31 -94 -31h-332q240 215 435 535l-263 491q-100 188 -235 340z" />
<glyph unicode="Z" horiz-adv-x="1351" d="M29 0l817 1130q-199 -8 -533 -10q-94 0 -132 -7t-83 -28l58 211q12 45 30.5 57.5t69.5 12.5h1067l-778 -1128q102 6 196 6q27 0 163 -2t159 -2q160 0 250 39l-41 -181q-14 -59 -55 -78.5t-177 -19.5q-49 0 -305 2t-297 2q-239 0 -409 -4z" />
<glyph unicode="[" horiz-adv-x="694" d="M143 -383v1749h516v-147h-225v-1452h225v-150h-516z" />
<glyph unicode="\" horiz-adv-x="731" d="M43 1397h205l397 -1428h-196z" />
<glyph unicode="]" horiz-adv-x="694" d="M35 -233h225v1452h-225v147h516v-1749h-516v150z" />
<glyph unicode="^" horiz-adv-x="1024" d="M31 461l379 803h204l379 -803h-225l-256 563l-256 -563h-225z" />
<glyph unicode="_" horiz-adv-x="1024" d="M0 -154h1024v-102h-1024v102z" />
<glyph unicode="`" horiz-adv-x="1024" d="M197 1366h282l148 -266h-181z" />
<glyph unicode="a" horiz-adv-x="987" d="M70 266q0 307 487 342v41q0 59 -20.5 85t-77.5 26q-170 0 -318 -117q-43 154 -43 184q0 25 19.5 43.5t91.5 47.5q137 53 303 53q92 0 157.5 -19.5t97.5 -44t49.5 -67.5t19.5 -70t2 -70v-399q0 -68 13 -114t26.5 -64.5t40.5 -42.5q-147 -72 -182.5 -86t-57.5 -14 q-8 0 -17.5 3t-26 22.5t-22.5 53.5q-109 -80 -245 -79q-88 0 -150.5 29.5t-92.5 76.5t-42 91t-12 89zM338 274q0 -47 26.5 -72.5t71.5 -25.5q72 0 121 68v172q-219 -17 -219 -142z" />
<glyph unicode="b" horiz-adv-x="1095" d="M78 1397l330 65v-551q94 59 202 60q199 0 304.5 -142.5t105.5 -347.5q0 -133 -42 -234.5t-111.5 -155.5t-146.5 -80.5t-161 -26.5q-150 0 -276 75l-158 -63v1016q0 131 -6 205.5t-13.5 103.5t-27.5 76zM408 289q57 -68 141 -68q88 0 138 66.5t50 195.5q0 61 -11 111.5 t-53 95.5t-112 45q-84 0 -153 -65v-381z" />
<glyph unicode="c" horiz-adv-x="913" d="M63 481q0 139 44.5 240.5t119 153t153.5 74t169 22.5q117 0 201 -29t110 -61q14 -16 14 -50q0 -18 -73 -182q-113 94 -221 94q-82 0 -151 -58t-69 -200q0 -117 54.5 -195.5t165.5 -78.5q115 0 266 121l8 -197q0 -55 -35 -78q-29 -23 -107.5 -48t-187.5 -25 q-223 0 -342 133t-119 364z" />
<glyph unicode="d" horiz-adv-x="1095" d="M63 481q0 242 127 366t299 124q80 0 168 -45v315q0 88 -34 158l317 63v-1143q0 -104 15.5 -154t50.5 -102l-168 -61q-35 -12 -45 -12q-51 0 -66 82q-117 -88 -246 -88q-180 0 -299 135t-119 362zM354 473q0 -119 44 -181.5t116 -62.5q76 0 143 62v393q-66 57 -131 57 q-53 0 -90 -27.5t-53 -72.5t-22.5 -85t-6.5 -83z" />
<glyph unicode="e" horiz-adv-x="987" d="M63 494q0 225 124 351t335 126q215 0 316 -140q39 -51 59.5 -109t25.5 -93t9 -97l-557 -184q61 -137 194 -137q125 0 269 111l110 -207q-66 -41 -107.5 -63.5t-121.5 -45t-170 -22.5q-244 0 -365 147.5t-121 362.5zM344 604q0 -23 6 -63l303 98q-6 18 -9 24.5t-12 28 t-20.5 31.5t-27 24.5t-37 20.5t-47.5 6q-61 0 -108.5 -44t-47.5 -126z" />
<glyph unicode="f" horiz-adv-x="657" d="M20 727l41 164q18 63 74 63h35v220q0 45 2 71.5t17.5 71.5t45 69.5t89 45t145.5 20.5q98 0 172 -22.5t74 -55.5q0 -18 -13 -47l-49 -121q-61 39 -123 39q-37 0 -55 -20.5t-20 -40t-2 -51.5v-179h176l-25 -141q-6 -43 -27.5 -64.5t-76.5 -21.5h-47v-393q0 -152 8 -213.5 t33 -120.5h-365q23 51 32 112.5t9 221.5v393h-150z" />
<glyph unicode="g" horiz-adv-x="1021" d="M43 -143q0 147 170 217q-104 39 -104 145q0 104 116 166q-141 92 -141 254q0 57 19.5 111.5t61.5 106.5t124 83t194 31q70 0 129 -13q115 -27 176 -26q129 0 259 20l-31 -157q-6 -27 -20.5 -41.5t-27 -16.5t-34.5 -2q-35 0 -64 4q23 -72 23 -112q0 -141 -96 -226 q-94 -84 -293 -84q-55 0 -79 -2t-42 -15t-18 -42t21.5 -44t49 -18t80.5 -6q78 -4 128 -8t118.5 -20.5t108.5 -44t69 -77.5t29 -122q0 -84 -46 -148.5t-123 -100.5t-163 -52t-176 -16q-53 0 -103.5 6t-132.5 27.5t-132 79t-50 143.5zM301 -111q0 -14 7 -27.5t24.5 -29.5 t56.5 -26.5t96 -10.5q94 0 159 25.5t65 81.5q0 88 -213 88q-74 0 -134.5 -24t-60.5 -77zM358 637q0 -51 16.5 -87t41 -49.5t42 -18.5t34.5 -5q51 0 93 39t42 127q0 162 -129 162q-59 0 -99.5 -42t-40.5 -126z" />
<glyph unicode="h" horiz-adv-x="1132" d="M88 1401l330 61v-571q117 80 270 80q197 0 273 -101q43 -55 43 -221v-315q0 -152 8 -214.5t32 -119.5h-364q16 37 23.5 63.5t12.5 92t5 178.5v244q0 35 -2 54t-13.5 46t-40 39t-73.5 12q-106 0 -174 -74v-321q0 -152 8 -214.5t33 -119.5h-365q25 51 33 113.5t8 220.5v682 q0 188 -9 251.5t-38 133.5z" />
<glyph unicode="i" horiz-adv-x="548" d="M76 891l330 67v-624q0 -150 8 -213.5t32 -120.5h-364q16 39 22.5 62.5t12.5 91t6 180.5v182q0 178 -9 242.5t-38 132.5zM100 1249q0 63 44 106.5t106 43.5q63 0 107 -43t44 -107q0 -61 -44 -105t-107 -44q-61 0 -105.5 44t-44.5 105z" />
<glyph unicode="j" horiz-adv-x="512" d="M-47 -31q51 -86 113 -86q33 0 50 21.5t19 43t2 66.5v502q0 180 -9 242.5t-38 134.5l330 65v-1015q0 -39 -2 -63.5t-16.5 -68.5t-41 -71t-83 -47.5t-136.5 -20.5q-129 0 -168 39q-16 14 -16 49zM115 1249.5q0 61.5 44 105.5t107.5 44t107.5 -43t44 -107q0 -61 -44 -105 t-107.5 -44t-107.5 44t-44 105.5z" />
<glyph unicode="k" horiz-adv-x="1021" d="M90 1397l326 65v-475q-4 -313 -8 -344q-6 -55 -7 -57q100 152 267 293q90 86 137 86q27 0 57 -31l135 -139q-70 -20 -159 -93q-119 -90 -215 -186q131 -143 258 -248q98 -84 163 -114l-141 -125q-51 -45 -90 -45q-31 0 -55.5 19.5t-83.5 86.5q-45 53 -138.5 168 t-97.5 121l-22 -27q0 -164 7 -228.5t34 -123.5h-365q23 51 32 112.5t9 221.5v678q0 186 -8 250.5t-35 134.5z" />
<glyph unicode="l" horiz-adv-x="548" d="M88 1397l330 65v-1126q0 -154 8 -216.5t33 -119.5h-365q16 39 22.5 63.5t12.5 92t6 180.5v676q0 186 -9 250.5t-38 134.5z" />
<glyph unicode="m" horiz-adv-x="1642" d="M88 893l293 65l10 -79q125 92 273 92q141 0 239 -92q129 92 301 92q78 0 157 -25.5t114 -81.5q39 -63 38 -219v-311q0 -152 8.5 -213.5t32.5 -120.5h-364q23 55 32 115.5t9 218.5v217q0 41 -2 62.5t-12.5 53t-36 47t-68.5 15.5q-82 0 -151 -74v-321q0 -156 9 -216.5 t31 -117.5h-362q45 72 45 334v239q0 154 -121 154q-72 0 -149 -72v-321q0 -150 8 -213.5t33 -120.5h-365q23 53 32 113.5t9 220.5v180q0 184 -8 246.5t-35 132.5z" />
<glyph unicode="n" horiz-adv-x="1132" d="M88 893l293 65l10 -77q133 90 293 90q90 0 154.5 -20.5t95.5 -47t47 -72t18 -72t2 -69.5v-356q0 -152 8.5 -214.5t32.5 -119.5h-364q23 53 32 113.5t9 220.5v244q0 29 -2 47t-13.5 45.5t-40 42t-73.5 14.5q-94 0 -176 -76v-317q0 -109 5 -174.5t12 -93t24 -66.5h-365 q23 53 32 114.5t9 219.5v180q0 182 -8 245.5t-35 133.5z" />
<glyph unicode="o" horiz-adv-x="1095" d="M63 477q0 252 129.5 373t356.5 121q242 0 362.5 -129t120.5 -365q0 -113 -30.5 -201t-80 -141t-115 -89t-129 -49t-128.5 -13q-94 0 -177 26.5t-154 81.5t-113 154.5t-42 230.5zM356 477q0 -260 193 -260q190 0 190 260t-190 260q-193 0 -193 -260z" />
<glyph unicode="p" horiz-adv-x="1095" d="M76 901l301 68l10 -76q100 78 223 78q184 0 297 -129t113 -367q0 -233 -124 -362t-298 -129q-92 0 -197 47v-109q0 -184 45 -305h-368q14 35 21 61.5t13.5 94t6.5 180.5v571q0 184 -8 247.5t-35 129.5zM399 266q53 -59 136 -59q190 0 190 276q0 252 -168 252 q-104 0 -158 -76v-393z" />
<glyph unicode="q" horiz-adv-x="1095" d="M76 471q0 123 37 217t89 146.5t121.5 84t124 42t105.5 10.5q150 0 274 -70l152 53v-1001q0 -152 8 -215.5t33 -120.5h-354q31 90 30 305v105q-106 -43 -188 -43q-193 0 -312.5 132t-119.5 355zM369 467q0 -117 48 -190.5t142 -73.5q76 0 137 57v418q-70 57 -141 57 q-86 0 -136 -69.5t-50 -198.5z" />
<glyph unicode="r" horiz-adv-x="694" d="M90 0q16 37 22.5 62.5t12.5 93t6 178.5v178q0 129 -5 205t-11 102.5t-23 71.5l277 67l18 -100q37 35 59.5 54.5t68.5 39t97 19.5q88 0 88 -51q0 -25 -12 -66l-47 -164q-49 16 -84 17q-78 0 -143 -66v-307q0 -152 8 -213.5t33 -120.5h-365z" />
<glyph unicode="s" horiz-adv-x="839" d="M53 111q0 8 15 49l49 143q160 -115 295 -115q115 0 114 76q0 41 -32.5 62.5t-149.5 66.5q-145 55 -205.5 112.5t-60.5 174.5q0 82 34.5 141.5t76.5 87t104.5 43t92.5 17.5t67 2q125 0 221 -29t96 -82q0 -27 -14 -59l-51 -117q-139 90 -277 90q-92 0 -92 -63 q0 -39 40 -61.5t134 -53.5q133 -43 204.5 -106.5t71.5 -192.5t-77 -211q-106 -102 -312 -102q-139 0 -241.5 39t-102.5 88z" />
<glyph unicode="t" horiz-adv-x="731" d="M49 725v231q51 -2 103 -2v236l278 51v-287h178q45 0 80 9q1 -25 1 -47q0 -110 -17 -146q-20 -45 -101 -45h-141v-403q0 -63 14.5 -89t51.5 -26q82 0 198 117q0 -31 1 -58q0 -108 -7 -148q-8 -50 -29 -67q-31 -27 -100.5 -47t-159.5 -20q-164 0 -225 84q-18 29 -22.5 63.5 t-4.5 124.5v469h-98z" />
<glyph unicode="u" horiz-adv-x="1132" d="M90 903l330 66v-578q0 -29 1 -45t7 -41.5t18.5 -40t38 -26t60.5 -11.5q82 0 174 76v309q0 164 -5 220.5t-28 121.5h348q-23 -68 -28 -122t-5 -220v-331q0 -143 43 -232l-299 -57l-14 69q-131 -78 -285 -77q-88 0 -150.5 20.5t-92 46t-46 70.5t-18.5 69.5t-2 67.5v268 q0 125 -6 199t-14.5 101.5t-26.5 76.5z" />
<glyph unicode="v" horiz-adv-x="1095" d="M-29 954h402q0 -2 -3 -17t-3 -24q0 -47 30 -108l176 -379l164 369q27 61 27 112q0 18 -12 47h399q-86 -100 -195 -295l-370 -671h-60l-376 698q-99 186 -179 268z" />
<glyph unicode="w" horiz-adv-x="1642" d="M-41 954h416q-10 -31 -10 -43q0 -39 36 -112l181 -389l133 286l-72 138q-33 59 -86 120h369q-6 -29 -6 -43q0 -43 43 -137l172 -352l163 387q20 47 21 90q0 27 -19 55h398q-47 -43 -99 -129q-100 -172 -118 -209l-334 -630h-62l-254 491l-241 -491h-62l-229 448 q-84 168 -199 338q-49 73 -141 182z" />
<glyph unicode="x" horiz-adv-x="1169" d="M18 954h404q-4 -59 55 -141l113 -149q111 98 146.5 160.5t43.5 129.5h322q-94 -293 -350 -473l239 -297q84 -104 168 -184h-420q6 20 6 27q0 33 -59 112l-129 174q-172 -143 -199 -313h-325q82 260 358 502l-215 274q-92 115 -158 178z" />
<glyph unicode="y" d="M-47 -383q289 276 430 545l-297 579q-74 147 -127 213h385q-6 -20 -6 -41q0 -37 43 -127l174 -391q184 315 184 510l-4 49h355q-199 -428 -260.5 -551.5t-174.5 -310.5q-256 -428 -319 -463q-25 -12 -66 -12h-317z" />
<glyph unicode="z" horiz-adv-x="1095" d="M16 0l613 762q-121 -23 -338 -27q-90 -2 -119 -6t-66 -22l5 163q2 59 34.5 71.5t130.5 12.5h801l-622 -768q72 18 126 22.5t250 6.5q158 2 224 31l-90 -183q-23 -45 -54.5 -54t-130.5 -9h-764z" />
<glyph unicode="{" horiz-adv-x="876" d="M104 502v51q127 51 183 111q37 43 37 102q0 33 -19 131q-31 156 -31 205q0 137 109 219q104 82 397 82v-62q-117 -35 -159.5 -90t-42.5 -161q0 -23 11 -158t9 -160q0 -102 -53 -150.5t-187 -91.5q119 -35 181.5 -96t62.5 -192q0 -51 -20 -203q-12 -68 -13 -143 q0 -88 59.5 -142.5t151.5 -70.5v-64q-92 0 -137 2t-117.5 17.5t-122.5 46.5q-135 86 -135 235q0 57 27 162q29 119 29 174q0 92 -46.5 149.5t-173.5 96.5z" />
<glyph unicode="|" horiz-adv-x="1024" d="M406 -512v2048h215v-2048h-215z" />
<glyph unicode="}" horiz-adv-x="876" d="M96 -317q92 16 151.5 70t59.5 143q0 29 -16.5 176t-16.5 172q0 129 62.5 189.5t181.5 96.5q-139 45 -189 93.5t-50 152.5q0 25 10 159t10 157q0 104 -43 159.5t-160 89.5v62q293 0 399.5 -82t106.5 -221q0 -59 -31 -203q-18 -94 -18 -129q0 -80 72 -135q59 -45 147 -80 v-51q-125 -39 -172 -94.5t-47 -145.5q0 -66 29 -180q27 -106 26 -158q0 -152 -139 -241q-49 -31 -121 -45.5t-117 -16.5t-135 -2v64z" />
<glyph unicode="~" horiz-adv-x="1024" d="M23 522q61 90 124.5 139.5t151.5 49.5q18 0 36.5 -2t38 -8.5t32 -9.5t34 -13t28.5 -13t31.5 -16.5t28.5 -15.5q131 -70 195 -70q92 0 172 133l106 -151q-63 -92 -126.5 -142.5t-151.5 -50.5q-27 0 -58.5 9.5t-47 15.5t-56.5 27.5t-49 25.5q-137 74 -213 70 q-92 0 -172 -133z" />
<glyph unicode="&#xa1;" horiz-adv-x="694" d="M178 -414l45 863l266 67l21 -911zM193 802.5q0 69.5 48 119t115 49.5q70 0 118 -49.5t48 -118.5q0 -68 -48 -117t-118 -49q-68 0 -115.5 48t-47.5 117.5z" />
<glyph unicode="&#xa2;" d="M158 631q0 344 315 424v194h213v-180q244 -29 244 -115q0 -29 -17 -63l-55 -117q-106 88 -211 88q-90 0 -140 -58.5t-50 -162.5q0 -123 55 -180.5t135 -57.5q127 0 262 117v-186q0 -66 -49 -90q-72 -37 -174 -47v-254l-213 -27v281q-82 18 -143.5 60t-93 89t-50 106.5 t-23.5 99.5t-5 79z" />
<glyph unicode="&#xa3;" d="M55 541l88 204q61 -2 101 0q-57 143 -58 250q0 141 100.5 213t264.5 72q135 0 247.5 -38t112.5 -83q0 -23 -8 -51l-41 -131q-152 80 -250 80q-63 0 -104 -30t-41 -89q0 -61 45 -193q137 2 328 27l-80 -229l-191 10q16 -74 17 -131q0 -111 -51 -219q276 0 442 47l-68 -232 q-10 -31 -55 -30q-18 0 -124.5 8t-117.5 8q-39 2 -100 2q-141 0 -313 -29l-39 58q72 68 104 135q59 111 60 242q0 63 -21 141q-115 0 -248 -12z" />
<glyph unicode="&#xa4;" horiz-adv-x="1228" d="M29 207l200 201q-53 98 -53 229q0 127 53 225l-200 201l155 156l201 -201q106 57 229 57q131 0 230 -57l200 201l156 -156l-201 -201q57 -98 58 -225q0 -131 -58 -229l201 -201l-156 -156l-200 201q-98 -57 -230 -57q-123 0 -229 57l-201 -201zM406 637q0 -98 57 -163.5 t151.5 -65.5t153.5 66.5t59 162.5t-59 160.5t-153.5 64.5t-151.5 -64.5t-57 -160.5z" />
<glyph unicode="&#xa5;" d="M-10 1264h391q0 -154 59 -322l88 -256l90 256q59 162 60 322h391q-70 -86 -117 -168t-121 -256h197v-195h-283l-59 -143h342v-195h-356q0 -215 39 -307h-363q14 37 20.5 58.5t12.5 84t6 164.5h-356v195h342l-60 143h-282v195h196q-74 174 -120.5 256t-116.5 168z" />
<glyph unicode="&#xa6;" horiz-adv-x="1024" d="M406 342h215v-684h-215v684zM406 682v684h215v-684h-215z" />
<glyph unicode="&#xa7;" d="M86 651q0 96 52 175t143 118q-70 84 -70 172q0 39 12.5 78t44 85t101 74.5t168.5 28.5q94 0 186 -23.5t121 -39.5q16 -10 16 -51v-209q-168 129 -272 129q-39 0 -62.5 -16.5t-28.5 -32t-5 -27.5q0 -27 25.5 -58.5t115.5 -103.5q201 -156 270.5 -236.5t69.5 -201.5 q0 -190 -197 -281q106 -102 107 -215q0 -137 -104.5 -217t-256.5 -80q-92 0 -199.5 39t-136.5 68q-20 20 -10 84l21 147q166 -135 297 -135q49 0 74.5 25.5t25.5 62.5q0 41 -42 88t-192 160q-158 121 -216 205t-58 188zM332 682q0 -49 35 -92q49 -63 247 -223 q102 51 103 133q0 72 -117 168l-170 141q-33 -18 -48 -28.5t-32.5 -37t-17.5 -61.5z" />
<glyph unicode="&#xa8;" horiz-adv-x="1024" d="M203 1224.5q0 53.5 38 92.5t93 39t93 -39t38 -92.5t-38 -92t-93 -38.5t-93 38.5t-38 92zM559 1224.5q0 53.5 38 92.5t93 39t93 -39t38 -92.5t-38 -92t-93 -38.5t-93 38.5t-38 92z" />
<glyph unicode="&#xa9;" horiz-adv-x="1646" d="M111 684q0 291 208.5 496.5t501.5 205.5q295 0 504 -205.5t209 -496.5q0 -293 -209 -498.5t-504 -205.5q-293 0 -501.5 205.5t-208.5 498.5zM229 684q0 -250 174.5 -426t417.5 -176q246 0 420 176t174 426q0 248 -174 424t-420 176q-244 0 -418 -176t-174 -424zM455 680 q0 264 190 358q90 43 203 43q86 0 180 -23.5t94 -43.5q0 -6 -8 -29l-41 -127q-96 68 -201 68q-102 0 -159.5 -63.5t-57.5 -178.5q0 -102 50.5 -172t162.5 -70q111 0 246 93v-150q0 -27 -6 -37t-35 -22q-96 -41 -211 -41q-209 0 -308 108.5t-99 286.5z" />
<glyph unicode="&#xaa;" horiz-adv-x="716" d="M72 858q0 100 92 154.5t246 62.5v12q0 55 -64 56q-98 0 -227 -70q-29 82 -29 121q0 29 72 53q98 33 219 33q78 0 129 -15.5t71.5 -44t25.5 -50t5 -52.5v-239q0 -84 62 -123l-123 -54q-35 -16 -64 -16q-33 0 -43 47q-72 -47 -159 -47q-115 0 -164 55.5t-49 116.5zM266 872 q0 -43 66 -43q33 0 55.5 12.5t22.5 28.5v82q-144 -23 -144 -80z" />
<glyph unicode="&#xab;" horiz-adv-x="1241" d="M152 455q111 84 172 147.5t149 175.5h201q-72 -180 -215 -323q106 -113 148 -178.5t67 -139.5h-201q-76 111 -144 178.5t-177 139.5zM610 455q111 84 174.5 148.5t149.5 174.5h199q-72 -178 -213 -323q104 -111 145 -177.5t68 -140.5h-199q-74 109 -144.5 177.5 t-179.5 140.5z" />
<glyph unicode="&#xac;" horiz-adv-x="1024" d="M51 635v213h912v-627h-213v414h-699z" />
<glyph unicode="&#xad;" horiz-adv-x="694" d="M80 354v250h534v-250h-534z" />
<glyph unicode="&#xae;" horiz-adv-x="1105" d="M92 965q0 174 135 297.5t328 123.5t327 -122.5t134 -299t-135.5 -299t-325.5 -122.5t-326.5 123t-136.5 299zM188 964.5q0 -139.5 107.5 -237.5t259.5 -98q150 0 257.5 98t107.5 237.5t-107.5 237.5t-257.5 98q-152 0 -259.5 -98t-107.5 -237.5zM340 1210h250 q72 0 120 -46t48 -107q0 -78 -68 -123q35 -55 66.5 -89t46 -43t45.5 -26q-106 -51 -133 -51t-70 53l-92 119h-49v-61q0 -70 24 -105h-184q23 39 23 105v260q0 61 -27 114zM502 995q115 0 114 60q0 20 -9 33.5t-29.5 18.5t-35 6t-40.5 1v-119z" />
<glyph unicode="&#xaf;" horiz-adv-x="1024" d="M182 1137v131h662v-131h-662z" />
<glyph unicode="&#xb0;" horiz-adv-x="933" d="M147 961q0 137 96.5 228t225.5 91q121 0 219 -89t98 -235q0 -129 -94 -222t-223 -93q-131 0 -226.5 92.5t-95.5 227.5zM266 961q0 -82 57.5 -142.5t143.5 -60.5q78 0 139.5 58t61.5 142t-59.5 144.5t-143.5 60.5t-141.5 -62t-57.5 -140z" />
<glyph unicode="&#xb1;" horiz-adv-x="1024" d="M51 -96v213h922v-213h-922zM51 563v213h355v332h212v-332h355v-213h-355v-332h-212v332h-355z" />
<glyph unicode="&#xb2;" horiz-adv-x="657" d="M12 506v96q137 121 279 293q78 94 78 152q0 49 -70 49q-106 0 -225 -76l-33 123q-4 8 -4 28q0 43 100.5 73t200.5 30q31 0 58.5 -4t80.5 -19.5t85 -58.5t32 -109q0 -68 -47 -148.5t-95.5 -129.5t-127.5 -125l182 4q70 2 135 33l-57 -160q-12 -37 -33 -44t-84 -7 q-18 0 -114.5 1t-112.5 1q-162 0 -228 -2z" />
<glyph unicode="&#xb3;" horiz-adv-x="657" d="M27 598l30 125q90 -47 162 -47q63 0 102 26.5t39 73.5q0 27 -9 47.5t-29.5 34.5t-37 23.5t-50 16.5t-48 9t-51.5 8q174 55 174 127q0 55 -76 56q-74 0 -186 -47l-10 133q-2 39 18 49q61 41 224 41q33 0 61.5 -4t81.5 -18.5t85 -56.5t32 -105q0 -88 -93 -160 q39 -20 61.5 -35.5t47.5 -55.5t25 -94q0 -111 -96.5 -180t-260.5 -69q-125 0 -166.5 25.5t-29.5 76.5z" />
<glyph unicode="&#xb4;" horiz-adv-x="1024" d="M387 1100l150 266h280l-250 -266h-180z" />
<glyph unicode="&#xb5;" horiz-adv-x="993" d="M82 -383v1337h283v-544q0 -98 26.5 -146.5t100.5 -48.5q158 0 157 246v493h283v-954h-254l-29 41q-68 -63 -157 -64q-84 0 -127 54v-414h-283z" />
<glyph unicode="&#xb6;" horiz-adv-x="1304" d="M20 948q0 199 137.5 308.5t358.5 109.5h625v-1749h-234v1540h-202v-1540h-234v897q-211 0 -331 119.5t-120 314.5z" />
<glyph unicode="&#xb7;" horiz-adv-x="497" d="M109 342v330h280v-330h-280z" />
<glyph unicode="&#xb8;" horiz-adv-x="1024" d="M393 -217q80 -45 137 -45q37 0 54.5 18.5t17.5 40.5q0 57 -74 58q-16 0 -34 -7v168l104 -6v-84q18 -2 37.5 -6t50.5 -17.5t50.5 -45t19.5 -76.5q0 -66 -50.5 -106t-134.5 -40q-121 0 -163 35q-14 12 -15 35v78z" />
<glyph unicode="&#xb9;" horiz-adv-x="657" d="M184 1233l275 41q-18 -68 -19 -152v-409q0 -94 6.5 -130t28.5 -79h-285q23 47 29 80.5t6 128.5v399q0 59 -7 80t-34 41z" />
<glyph unicode="&#xba;" horiz-adv-x="819" d="M74 983q0 152 90 224.5t246 72.5q164 0 249.5 -78t85.5 -219q0 -84 -31.5 -144.5t-83.5 -91t-106.5 -45t-113.5 -14.5q-139 0 -237.5 71.5t-98.5 223.5zM285 983q0 -135 125 -135t125 135q0 137 -125 137t-125 -137z" />
<glyph unicode="&#xbb;" horiz-adv-x="1241" d="M109 137q25 72 66.5 138.5t148.5 179.5q-141 141 -215 323h200q86 -113 149.5 -177t172.5 -146q-109 -74 -179.5 -142.5t-142.5 -175.5h-200zM569 137q16 49 31.5 82t62 95.5t119.5 140.5q-137 137 -213 323h199q88 -113 149.5 -176t174.5 -147q-109 -72 -178.5 -140.5 t-145.5 -177.5h-199z" />
<glyph unicode="&#xbc;" horiz-adv-x="1679" d="M135 1233l275 41q-18 -68 -19 -152v-409q0 -92 6 -128t29 -81h-285q23 47 29 80.5t6 128.5v399q0 59 -7 80t-34 41zM326 -53l698 1339h178l-698 -1339h-178zM934 133v123l377 502h178v-461q49 0 86 12v-123q0 -37 -16.5 -45t-69.5 -8v-129q0 -49 -9.5 -65.5t-45.5 -24.5 l-193 -35q41 102 41 172v82h-348zM1137 285h168l4 247z" />
<glyph unicode="&#xbd;" horiz-adv-x="1679" d="M145 1233l275 41q-18 -72 -19 -152v-409q0 -94 7.5 -130t29.5 -79h-286q23 47 28.5 79.5t5.5 129.5v399q0 59 -7 80t-34 41zM281 -55l702 1341h178l-700 -1341h-180zM946 0v96q139 121 281 293q78 100 78 152q0 49 -70 49q-104 0 -227 -76l-31 123q-6 12 -6 29 q0 43 102.5 72.5t200.5 29.5q31 0 59.5 -4t80.5 -19.5t84 -58.5t32 -108q0 -68 -47 -148t-94.5 -130t-128.5 -126l182 4q61 2 135 33l-57 -158q-12 -39 -32 -46t-87 -7q-18 0 -114.5 1t-110.5 1q-160 0 -230 -2z" />
<glyph unicode="&#xbe;" horiz-adv-x="1679" d="M47 598l31 125q90 -47 162 -47q66 0 103.5 27.5t37.5 72.5q0 37 -19.5 63.5t-59.5 41t-68.5 20.5t-79.5 14q174 55 174 127q0 55 -76 56q-78 0 -186 -47l-11 133q-2 37 19 49q66 41 223 41q113 0 186.5 -43t73.5 -141q0 -39 -15.5 -72t-30.5 -49.5t-42 -38.5 q37 -20 59.5 -35.5t47 -56.5t24.5 -93q0 -111 -96 -180t-262 -69q-121 0 -164 25.5t-31 76.5zM403 -53l701 1339h178l-700 -1339h-179zM987 133v123l377 504h178v-463q49 0 86 12v-123q0 -37 -16.5 -45t-69.5 -8v-129q0 -49 -8 -66.5t-47 -23.5l-193 -35q39 100 39 178v76 h-346zM1190 285h168l4 247z" />
<glyph unicode="&#xbf;" horiz-adv-x="839" d="M106 -147q0 55 18.5 106t39 84t74.5 109q94 131 94 249q0 41 -8 86l276 -26q12 -197 -80 -324q-76 -106 -94 -139t-18 -70q0 -102 96 -102q94 0 145 92l99 -98q33 -33 32 -68q0 -59 -102.5 -119.5t-251.5 -60.5q-166 0 -243 82t-77 199zM293 802.5q0 69.5 48 119 t116 49.5q70 0 118 -49.5t48 -118.5q0 -68 -48.5 -117t-117.5 -49q-68 0 -116 48t-48 117.5z" />
<glyph unicode="&#xc0;" horiz-adv-x="1425" d="M66 0v66q0 250 107.5 544.5t336.5 542.5q-143 0 -305 -43q80 135 119 260q41 -4 174 -4h444q211 -305 310.5 -669.5t99.5 -622.5v-74h-353q23 78 23 168q0 133 -25 274h-561q-45 -139 -45 -297q0 -55 15 -145h-340zM444 1751h289l154 -274h-185zM508 680h442 q-53 272 -155 453h-15q-184 -199 -272 -453z" />
<glyph unicode="&#xc1;" horiz-adv-x="1425" d="M66 0v66q0 250 107.5 544.5t336.5 542.5q-143 0 -305 -43q80 135 119 260q41 -4 174 -4h444q211 -305 310.5 -669.5t99.5 -622.5v-74h-353q23 78 23 168q0 133 -25 274h-561q-45 -139 -45 -297q0 -55 15 -145h-340zM508 680h442q-53 272 -155 453h-15 q-184 -199 -272 -453zM690 1477l152 274h291l-259 -274h-184z" />
<glyph unicode="&#xc2;" horiz-adv-x="1425" d="M66 0v66q0 250 107.5 544.5t336.5 542.5q-143 0 -305 -43q80 135 119 260q41 -4 174 -4h444q211 -305 310.5 -669.5t99.5 -622.5v-74h-353q23 78 23 168q0 133 -25 274h-561q-45 -139 -45 -297q0 -55 15 -145h-340zM420 1475l225 276h209l201 -276h-191l-121 124 l-127 -124h-196zM508 680h442q-53 272 -155 453h-15q-184 -199 -272 -453z" />
<glyph unicode="&#xc3;" horiz-adv-x="1425" d="M66 0v66q0 250 107.5 544.5t336.5 542.5q-143 0 -305 -43q80 135 119 260q41 -4 174 -4h444q211 -305 310.5 -669.5t99.5 -622.5v-74h-353q23 78 23 168q0 133 -25 274h-561q-45 -139 -45 -297q0 -55 15 -145h-340zM348 1542q111 199 254 199q41 0 221 -53 q68 -20 103 -21q63 0 116 62l76 -62q-72 -94 -125 -137t-129 -43q-57 0 -166 37q-100 37 -151 37q-63 0 -115 -76zM508 680h442q-53 272 -155 453h-15q-184 -199 -272 -453z" />
<glyph unicode="&#xc4;" horiz-adv-x="1425" d="M66 0v66q0 250 107.5 544.5t336.5 542.5q-143 0 -305 -43q80 135 119 260q41 -4 174 -4h444q211 -305 310.5 -669.5t99.5 -622.5v-74h-353q23 78 23 168q0 133 -25 274h-561q-45 -139 -45 -297q0 -55 15 -145h-340zM410 1607.5q0 57.5 39.5 96.5t95 39t95.5 -39t40 -96.5 t-40 -96t-95.5 -38.5t-95 38.5t-39.5 96zM508 680h442q-53 272 -155 453h-15q-184 -199 -272 -453zM786 1607.5q0 57.5 40 96.5t95.5 39t95.5 -39t40 -96.5t-40 -96t-95.5 -38.5t-95.5 38.5t-40 96z" />
<glyph unicode="&#xc5;" horiz-adv-x="1425" d="M66 0v66q0 250 107.5 544.5t336.5 542.5q-143 0 -305 -43q80 135 119 260q41 -4 174 -4h444q211 -305 310.5 -669.5t99.5 -622.5v-74h-353q23 78 23 168q0 133 -25 274h-561q-45 -139 -45 -297q0 -55 15 -145h-340zM508 680h442q-53 272 -155 453h-15 q-184 -199 -272 -453zM522 1647q0 88 61.5 149.5t149.5 61.5t149.5 -61.5t61.5 -149.5q0 -86 -61.5 -147.5t-149.5 -61.5t-149.5 61.5t-61.5 147.5zM647 1644.5q0 -34.5 23.5 -59t60.5 -24.5q35 0 59.5 24.5t24.5 59t-24.5 60.5t-59.5 26t-59.5 -26t-24.5 -60.5z" />
<glyph unicode="&#xc6;" horiz-adv-x="1753" d="M59 0q12 381 152.5 674t370.5 475q-98 4 -161 -3t-210 -36q76 137 102 262q8 0 62 -4q10 0 46 -1t62 -1h1084q29 0 37 -8t10 -41l12 -217q-59 20 -149 20h-279v-280h225q57 0 107 12v-260q-57 8 -141 8h-191v-354h324q84 0 174 24l-43 -221q-6 -35 -26.5 -42t-108.5 -7 q-2 0 -82 1t-169 2t-116 1q-86 0 -311 -4q35 63 45 117.5t10 181.5v143h-453q-51 -162 -51 -364q0 -29 6 -78h-338zM539 688h356v467h-23q-165 -156 -333 -467z" />
<glyph unicode="&#xc7;" horiz-adv-x="1241" d="M78 674q0 469 319 631q154 78 342 77q141 0 274.5 -34.5t166.5 -57.5q14 -10 14 -20q0 -8 -12 -45l-66 -211q-162 113 -334 112q-180 0 -281.5 -115.5t-101.5 -326.5q0 -201 92.5 -322.5t282.5 -121.5q193 0 406 153v-243q0 -47 -14.5 -65.5t-84.5 -43.5 q-160 -59 -319 -57v-78q160 -18 160 -154q0 -66 -49.5 -119t-153.5 -53q-51 0 -119 17.5t-65 54.5v94q78 -47 141 -47q84 0 84 63q0 59 -86 60q-6 0 -43 -4v172q-219 33 -342 141q-211 185 -211 543z" />
<glyph unicode="&#xc8;" horiz-adv-x="1021" d="M113 1372q8 0 61 -4q10 0 46 -1t63 -1h522q55 0 65.5 -7t12.5 -52l12 -211q-57 25 -160 24h-256v-280h199q68 0 127 12v-258q-51 6 -148 6h-178v-352h291q119 0 197 24l-45 -211q-8 -45 -24.5 -53t-84.5 -8q-35 0 -207 2t-198 2q-45 0 -291 -4q33 57 44 111.5t11 185.5 v776q0 127 -13 183.5t-46 115.5zM168 1751h289l153 -274h-184z" />
<glyph unicode="&#xc9;" horiz-adv-x="1021" d="M113 1372q8 0 61 -4q10 0 46 -1t63 -1h522q55 0 65.5 -7t12.5 -52l12 -211q-57 25 -160 24h-256v-280h199q68 0 127 12v-258q-51 6 -148 6h-178v-352h291q119 0 197 24l-45 -211q-8 -45 -24.5 -53t-84.5 -8q-35 0 -207 2t-198 2q-45 0 -291 -4q33 57 44 111.5t11 185.5 v776q0 127 -13 183.5t-46 115.5zM334 1477l151 274h291l-258 -274h-184z" />
<glyph unicode="&#xca;" horiz-adv-x="1021" d="M113 1372q8 0 61 -4q10 0 46 -1t63 -1h522q55 0 65.5 -7t12.5 -52l12 -211q-57 25 -160 24h-256v-280h199q68 0 127 12v-258q-51 6 -148 6h-178v-352h291q119 0 197 24l-45 -211q-8 -45 -24.5 -53t-84.5 -8q-35 0 -207 2t-198 2q-45 0 -291 -4q33 57 44 111.5t11 185.5 v776q0 127 -13 183.5t-46 115.5zM199 1475l225 276h209l201 -276h-191l-121 124l-127 -124h-196z" />
<glyph unicode="&#xcb;" horiz-adv-x="1021" d="M113 1372q8 0 61 -4q10 0 46 -1t63 -1h522q55 0 65.5 -7t12.5 -52l12 -211q-57 25 -160 24h-256v-280h199q68 0 127 12v-258q-51 6 -148 6h-178v-352h291q119 0 197 24l-45 -211q-8 -45 -24.5 -53t-84.5 -8q-35 0 -207 2t-198 2q-45 0 -291 -4q33 57 44 111.5t11 185.5 v776q0 127 -13 183.5t-46 115.5zM188 1607.5q0 57.5 40 96.5t95.5 39t95.5 -39t40 -96.5t-40 -96t-95.5 -38.5t-95.5 38.5t-40 96zM565 1607.5q0 57.5 40 96.5t95.5 39t95.5 -39t40 -96.5t-40 -96t-95.5 -38.5t-95.5 38.5t-40 96z" />
<glyph unicode="&#xcc;" horiz-adv-x="657" d="M8 1751h289l154 -274h-185zM113 1366h434q-23 -39 -33 -63.5t-18.5 -83t-8.5 -150.5v-770q0 -123 10.5 -178t45.5 -121h-426q35 61 45 115.5t10 183.5v770q0 92 -9 151.5t-18 83t-32 62.5z" />
<glyph unicode="&#xcd;" horiz-adv-x="657" d="M113 1366h434q-23 -39 -33 -63.5t-18.5 -83t-8.5 -150.5v-770q0 -123 10.5 -178t45.5 -121h-426q35 61 45 115.5t10 183.5v770q0 92 -9 151.5t-18 83t-32 62.5zM199 1477l151 274h291l-258 -274h-184z" />
<glyph unicode="&#xce;" horiz-adv-x="657" d="M16 1475l226 276h209l200 -276h-190l-121 124l-127 -124h-197zM113 1366h434q-23 -39 -33 -63.5t-18.5 -83t-8.5 -150.5v-770q0 -123 10.5 -178t45.5 -121h-426q35 61 45 115.5t10 183.5v770q0 92 -9 151.5t-18 83t-32 62.5z" />
<glyph unicode="&#xcf;" horiz-adv-x="657" d="M39 1607.5q0 57.5 36 96.5t85 39q51 0 87 -39t36 -96.5t-36 -96t-87 -38.5q-49 0 -85 38.5t-36 96zM113 1366h434q-23 -39 -33 -63.5t-18.5 -83t-8.5 -150.5v-770q0 -123 10.5 -178t45.5 -121h-426q35 61 45 115.5t10 183.5v770q0 92 -9 151.5t-18 83t-32 62.5z M377 1607.5q0 57.5 36 96.5t87 39q49 0 85 -39t36 -96.5t-36 -96t-85 -38.5q-51 0 -87 38.5t-36 96z" />
<glyph unicode="&#xd0;" horiz-adv-x="1388" d="M72 571v226h98v278q0 92 -8 150.5t-18.5 83t-32.5 63.5q57 -4 100 -4q35 -2 98 -2h309q160 0 264.5 -18.5t188.5 -75.5q104 -74 172 -222.5t68 -355.5q0 -80 -13.5 -156.5t-46 -169t-104.5 -172t-176 -130.5q-131 -66 -393 -66q-23 0 -138.5 2t-134.5 2q-84 0 -190 -4 q35 63 45 117.5t10 181.5v272h-98zM483 250q254 0 330 35q182 82 182 395q0 262 -118 371q-80 74 -250 73q-70 0 -144 -6v-321h213v-226h-213v-321z" />
<glyph unicode="&#xd1;" horiz-adv-x="1607" d="M113 1366h364l676 -922l-16 633q-2 137 -10.5 180t-36.5 109h405q-23 -39 -33 -63.5t-18 -83t-8 -150.5v-721q0 -229 12 -348h-254l-725 977l12 -658q4 -199 43 -319h-395q35 63 45 118.5t10 180.5v727q0 135 -16 202.5t-55 137.5zM420 1542q111 199 254 199 q41 0 221 -53q68 -20 102 -21q63 0 117 62l76 -62q-72 -94 -125 -137t-129 -43q-57 0 -166 37q-100 37 -152 37q-63 0 -114 -76z" />
<glyph unicode="&#xd2;" horiz-adv-x="1533" d="M76 692q0 338 198 527q174 164 482 163q342 0 506 -163q197 -193 196 -527q0 -309 -145 -495q-168 -213 -545 -213q-465 0 -614 329q-78 174 -78 379zM397 682q0 -203 82 -315q92 -129 289 -129q74 0 156 28.5t133 100.5q82 113 82 315q0 76 -13.5 141.5t-48.5 140 t-114.5 118.5t-194.5 44q-94 0 -163.5 -31.5t-108.5 -76.5t-62.5 -109.5t-30 -117t-6.5 -109.5zM446 1751h289l154 -274h-184z" />
<glyph unicode="&#xd3;" horiz-adv-x="1533" d="M76 692q0 338 198 527q174 164 482 163q342 0 506 -163q197 -193 196 -527q0 -309 -145 -495q-168 -213 -545 -213q-465 0 -614 329q-78 174 -78 379zM397 682q0 -203 82 -315q92 -129 289 -129q74 0 156 28.5t133 100.5q82 113 82 315q0 76 -13.5 141.5t-48.5 140 t-114.5 118.5t-194.5 44q-94 0 -163.5 -31.5t-108.5 -76.5t-62.5 -109.5t-30 -117t-6.5 -109.5zM637 1477l151 274h291l-258 -274h-184z" />
<glyph unicode="&#xd4;" horiz-adv-x="1533" d="M76 692q0 338 198 527q174 164 482 163q342 0 506 -163q197 -193 196 -527q0 -309 -145 -495q-168 -213 -545 -213q-465 0 -614 329q-78 174 -78 379zM397 682q0 -203 82 -315q92 -129 289 -129q74 0 156 28.5t133 100.5q82 113 82 315q0 76 -13.5 141.5t-48.5 140 t-114.5 118.5t-194.5 44q-94 0 -163.5 -31.5t-108.5 -76.5t-62.5 -109.5t-30 -117t-6.5 -109.5zM455 1475l225 276h209l201 -276h-191l-121 124l-127 -124h-196z" />
<glyph unicode="&#xd5;" horiz-adv-x="1533" d="M76 692q0 338 198 527q174 164 482 163q342 0 506 -163q197 -193 196 -527q0 -309 -145 -495q-168 -213 -545 -213q-465 0 -614 329q-78 174 -78 379zM383 1542q111 199 254 199q41 0 221 -53q68 -20 103 -21q63 0 116 62l76 -62q-72 -94 -125 -137t-129 -43 q-57 0 -166 37q-100 37 -151 37q-63 0 -115 -76zM397 682q0 -203 82 -315q92 -129 289 -129q74 0 156 28.5t133 100.5q82 113 82 315q0 76 -13.5 141.5t-48.5 140t-114.5 118.5t-194.5 44q-94 0 -163.5 -31.5t-108.5 -76.5t-62.5 -109.5t-30 -117t-6.5 -109.5z" />
<glyph unicode="&#xd6;" horiz-adv-x="1533" d="M76 692q0 338 198 527q174 164 482 163q342 0 506 -163q197 -193 196 -527q0 -309 -145 -495q-168 -213 -545 -213q-465 0 -614 329q-78 174 -78 379zM397 682q0 -203 82 -315q92 -129 289 -129q74 0 156 28.5t133 100.5q82 113 82 315q0 76 -13.5 141.5t-48.5 140 t-114.5 118.5t-194.5 44q-94 0 -163.5 -31.5t-108.5 -76.5t-62.5 -109.5t-30 -117t-6.5 -109.5zM444 1607.5q0 57.5 40 96.5t95.5 39t95.5 -39t40 -96.5t-40 -96t-95.5 -38.5t-95.5 38.5t-40 96zM821 1607.5q0 57.5 40 96.5t95.5 39t95.5 -39t40 -96.5t-40 -96t-95.5 -38.5 t-95.5 38.5t-40 96z" />
<glyph unicode="&#xd7;" horiz-adv-x="1024" d="M23 176l342 342l-342 342l147 148l342 -342l342 342l147 -148l-344 -342l344 -342l-147 -147l-342 344l-342 -344z" />
<glyph unicode="&#xd8;" horiz-adv-x="1533" d="M76 694q0 342 184 515t498 173q225 0 375 -71l124 168l127 -103l-116 -164q190 -190 190 -524q0 -172 -60.5 -336t-197.5 -258q-162 -111 -440 -110q-199 0 -375 82l-156 -205l-133 98l154 205q-174 196 -174 530zM391 692q0 -188 66 -303l504 703q-86 43 -191 43 q-117 0 -209 -52q-88 -49 -129 -160.5t-41 -230.5zM559 287q92 -55 209 -56q113 0 191.5 43t116.5 115t52.5 141.5t14.5 149.5q0 205 -76 315z" />
<glyph unicode="&#xd9;" horiz-adv-x="1533" d="M131 547q0 209 59 545q20 133 21 184q0 47 -8 90h395q-164 -385 -164 -778q0 -66 9.5 -117t39 -111.5t98 -94.5t173.5 -34q160 0 282 95v743q0 92 -9 151.5t-18.5 83t-31.5 62.5h434q-23 -37 -33 -62.5t-18 -84t-8 -150.5v-692q0 -147 25.5 -213t80.5 -113l-321 -69 q-49 61 -60 84q-156 -94 -356 -95q-250 0 -404 117q-186 140 -186 459zM485 1751h289l154 -274h-185z" />
<glyph unicode="&#xda;" horiz-adv-x="1533" d="M131 547q0 209 59 545q20 133 21 184q0 47 -8 90h395q-164 -385 -164 -778q0 -66 9.5 -117t39 -111.5t98 -94.5t173.5 -34q160 0 282 95v743q0 92 -9 151.5t-18.5 83t-31.5 62.5h434q-23 -37 -33 -62.5t-18 -84t-8 -150.5v-692q0 -147 25.5 -213t80.5 -113l-321 -69 q-49 61 -60 84q-156 -94 -356 -95q-250 0 -404 117q-186 140 -186 459zM678 1477l151 274h291l-258 -274h-184z" />
<glyph unicode="&#xdb;" horiz-adv-x="1533" d="M131 547q0 209 59 545q20 133 21 184q0 47 -8 90h395q-164 -385 -164 -778q0 -66 9.5 -117t39 -111.5t98 -94.5t173.5 -34q160 0 282 95v743q0 92 -9 151.5t-18.5 83t-31.5 62.5h434q-23 -37 -33 -62.5t-18 -84t-8 -150.5v-692q0 -147 25.5 -213t80.5 -113l-321 -69 q-49 61 -60 84q-156 -94 -356 -95q-250 0 -404 117q-186 140 -186 459zM455 1475l225 276h209l201 -276h-191l-121 124l-127 -124h-196z" />
<glyph unicode="&#xdc;" horiz-adv-x="1533" d="M131 547q0 209 59 545q20 133 21 184q0 47 -8 90h395q-164 -385 -164 -778q0 -66 9.5 -117t39 -111.5t98 -94.5t173.5 -34q160 0 282 95v743q0 92 -9 151.5t-18.5 83t-31.5 62.5h434q-23 -37 -33 -62.5t-18 -84t-8 -150.5v-692q0 -147 25.5 -213t80.5 -113l-321 -69 q-49 61 -60 84q-156 -94 -356 -95q-250 0 -404 117q-186 140 -186 459zM475 1607.5q0 57.5 40 96.5t95.5 39t95 -39t39.5 -96.5t-39.5 -96t-95 -38.5t-95.5 38.5t-40 96zM852 1607.5q0 57.5 40 96.5t95 39t95 -39t40 -96.5t-40 -96t-95 -38.5t-95 38.5t-40 96z" />
<glyph unicode="&#xdd;" horiz-adv-x="1241" d="M-6 1366h455q4 -80 63 -211l145 -328l170 340q31 61 44.5 98.5t12.5 57.5t-3 43h417q-117 -150 -211 -326q-395 -721 -491 -868q-70 -102 -113 -141q-35 -31 -94 -31h-332q240 215 435 535l-263 491q-100 188 -235 340zM557 1477l152 274h290l-258 -274h-184z" />
<glyph unicode="&#xde;" horiz-adv-x="1095" d="M102 1366h430q-55 -98 -55 -197q227 -8 318 -30q131 -31 200.5 -142.5t69.5 -261.5q0 -225 -143.5 -338.5t-368.5 -113.5q-35 0 -76 4q0 -115 10.5 -168t44.5 -119h-426q35 61 45.5 115.5t10.5 183.5v768q0 92 -9.5 151.5t-18.5 84t-32 63.5zM467 518q154 -8 231.5 41 t77.5 172q0 205 -225 205q-31 0 -84 -6v-412z" />
<glyph unicode="&#xdf;" horiz-adv-x="1132" d="M88 0q25 57 33 118.5t8 217.5v713q0 63 2 96t12.5 81t36 85t68.5 69q92 74 264 74q193 0 301.5 -92t108.5 -250q0 -152 -91 -252q100 -41 156 -106q104 -127 105 -318q0 -213 -126 -332.5t-292 -119.5q-86 0 -116 27.5t-36 84.5l-8 131q53 -33 104 -32q74 0 132 51 q70 66 69 194q0 276 -301 351q145 123 146 282q0 78 -38 129t-102 51q-33 0 -55.5 -12t-33.5 -27.5t-16 -45t-6 -49t-1 -56.5v-727q0 -154 8 -215.5t33 -120.5h-365z" />
<glyph unicode="&#xe0;" horiz-adv-x="987" d="M70 266q0 307 487 342v41q0 59 -20.5 85t-77.5 26q-170 0 -318 -117q-43 154 -43 184q0 25 19.5 43.5t91.5 47.5q137 53 303 53q92 0 157.5 -19.5t97.5 -44t49.5 -67.5t19.5 -70t2 -70v-399q0 -68 13 -114t26.5 -64.5t40.5 -42.5q-147 -72 -182.5 -86t-57.5 -14 q-8 0 -17.5 3t-26 22.5t-22.5 53.5q-109 -80 -245 -79q-88 0 -150.5 29.5t-92.5 76.5t-42 91t-12 89zM141 1366h283l147 -266h-180zM338 274q0 -47 26.5 -72.5t71.5 -25.5q72 0 121 68v172q-219 -17 -219 -142z" />
<glyph unicode="&#xe1;" horiz-adv-x="987" d="M70 266q0 307 487 342v41q0 59 -20.5 85t-77.5 26q-170 0 -318 -117q-43 154 -43 184q0 25 19.5 43.5t91.5 47.5q137 53 303 53q92 0 157.5 -19.5t97.5 -44t49.5 -67.5t19.5 -70t2 -70v-399q0 -68 13 -114t26.5 -64.5t40.5 -42.5q-147 -72 -182.5 -86t-57.5 -14 q-8 0 -17.5 3t-26 22.5t-22.5 53.5q-109 -80 -245 -79q-88 0 -150.5 29.5t-92.5 76.5t-42 91t-12 89zM338 274q0 -47 26.5 -72.5t71.5 -25.5q72 0 121 68v172q-219 -17 -219 -142zM391 1100l150 266h280l-250 -266h-180z" />
<glyph unicode="&#xe2;" horiz-adv-x="987" d="M70 266q0 307 487 342v41q0 59 -20.5 85t-77.5 26q-170 0 -318 -117q-43 154 -43 184q0 25 19.5 43.5t91.5 47.5q137 53 303 53q92 0 157.5 -19.5t97.5 -44t49.5 -67.5t19.5 -70t2 -70v-399q0 -68 13 -114t26.5 -64.5t40.5 -42.5q-147 -72 -182.5 -86t-57.5 -14 q-8 0 -17.5 3t-26 22.5t-22.5 53.5q-109 -80 -245 -79q-88 0 -150.5 29.5t-92.5 76.5t-42 91t-12 89zM188 1100l220 266h202l197 -266h-186l-119 119l-121 -119h-193zM338 274q0 -47 26.5 -72.5t71.5 -25.5q72 0 121 68v172q-219 -17 -219 -142z" />
<glyph unicode="&#xe3;" horiz-adv-x="987" d="M70 266q0 307 487 342v41q0 59 -20.5 85t-77.5 26q-170 0 -318 -117q-43 154 -43 184q0 25 19.5 43.5t91.5 47.5q137 53 303 53q92 0 157.5 -19.5t97.5 -44t49.5 -67.5t19.5 -70t2 -70v-399q0 -68 13 -114t26.5 -64.5t40.5 -42.5q-147 -72 -182.5 -86t-57.5 -14 q-8 0 -17.5 3t-26 22.5t-22.5 53.5q-109 -80 -245 -79q-88 0 -150.5 29.5t-92.5 76.5t-42 91t-12 89zM121 1163q106 193 244 193q41 0 217 -51q63 -20 98 -21q66 0 113 62l73 -60q-68 -90 -120 -132t-125 -42q-55 0 -160 35q-106 35 -148 35q-63 0 -110 -74zM338 274 q0 -47 26.5 -72.5t71.5 -25.5q72 0 121 68v172q-219 -17 -219 -142z" />
<glyph unicode="&#xe4;" horiz-adv-x="987" d="M70 266q0 307 487 342v41q0 59 -20.5 85t-77.5 26q-170 0 -318 -117q-43 154 -43 184q0 25 19.5 43.5t91.5 47.5q137 53 303 53q92 0 157.5 -19.5t97.5 -44t49.5 -67.5t19.5 -70t2 -70v-399q0 -68 13 -114t26.5 -64.5t40.5 -42.5q-147 -72 -182.5 -86t-57.5 -14 q-8 0 -17.5 3t-26 22.5t-22.5 53.5q-109 -80 -245 -79q-88 0 -150.5 29.5t-92.5 76.5t-42 91t-12 89zM170 1224.5q0 53.5 38 92.5t93 39t93 -39t38 -92.5t-38 -92t-93 -38.5t-93 38.5t-38 92zM338 274q0 -47 26.5 -72.5t71.5 -25.5q72 0 121 68v172q-219 -17 -219 -142z M526 1224.5q0 53.5 38 92.5t93.5 39t93 -39t37.5 -92.5t-37.5 -92t-93 -38.5t-93.5 38.5t-38 92z" />
<glyph unicode="&#xe5;" horiz-adv-x="987" d="M70 266q0 307 487 342v41q0 59 -20.5 85t-77.5 26q-170 0 -318 -117q-43 154 -43 184q0 25 19.5 43.5t91.5 47.5q137 53 303 53q92 0 157.5 -19.5t97.5 -44t49.5 -67.5t19.5 -70t2 -70v-399q0 -68 13 -114t26.5 -64.5t40.5 -42.5q-147 -72 -182.5 -86t-57.5 -14 q-8 0 -17.5 3t-26 22.5t-22.5 53.5q-109 -80 -245 -79q-88 0 -150.5 29.5t-92.5 76.5t-42 91t-12 89zM272 1253q0 86 60.5 145.5t144.5 59.5t144.5 -59.5t60.5 -145.5q0 -84 -60.5 -144t-144.5 -60t-144.5 60t-60.5 144zM338 274q0 -47 26.5 -72.5t71.5 -25.5q72 0 121 68 v172q-219 -17 -219 -142zM395 1251q0 -35 23.5 -58.5t58.5 -23.5t58.5 24t23.5 58q0 37 -24.5 60.5t-57.5 23.5t-57.5 -23.5t-24.5 -60.5z" />
<glyph unicode="&#xe6;" horiz-adv-x="1460" d="M57 272q0 319 494 344v37q0 29 -3 47.5t-31 39t-79 20.5q-150 0 -309 -111l-37 137q-8 33 -8 43q0 61 137 101.5t268 40.5q72 0 120 -22.5t63.5 -43t34.5 -53.5q113 119 301 119q86 0 153.5 -24.5t108.5 -71t67.5 -90.5t40 -103t17.5 -88t6 -66l-557 -182 q59 -139 203 -139q53 0 104 18.5t82 38t78 55.5l110 -208q-61 -39 -103 -61.5t-121 -44t-167 -21.5q-221 0 -352 157q-127 -158 -326 -157q-150 0 -222.5 84.5t-72.5 203.5zM326 279q0 -37 21.5 -70t72.5 -33q94 0 162 119l-19 127q-104 2 -170.5 -35.5t-66.5 -107.5z M815 600q0 -29 6 -63l305 96q-12 39 -22 62.5t-45 50t-86 26.5q-70 0 -114 -45t-44 -127z" />
<glyph unicode="&#xe7;" horiz-adv-x="913" d="M63 481q0 113 31 201t78 141.5t113.5 87t130 47t133.5 13.5q115 0 200 -29t111 -61q14 -16 14 -50q0 -16 -8 -32l-65 -150q-113 94 -219 94q-82 0 -152 -58t-70 -200q0 -117 54.5 -195.5t165.5 -78.5q115 0 266 121l8 -197q2 -59 -53 -90q-119 -59 -258 -61v-58 q18 -2 37.5 -6t50.5 -17.5t50 -45t19 -76.5q0 -66 -50 -106t-134 -40q-121 0 -164 35q-14 12 -14 35v78q80 -45 137 -45q37 0 54.5 18.5t17.5 40.5q0 57 -74 58q-16 0 -35 -7v142q-57 8 -97 19t-103.5 58.5t-106.5 122.5q-68 117 -68 291z" />
<glyph unicode="&#xe8;" horiz-adv-x="987" d="M63 494q0 225 124 351t335 126q215 0 316 -140q39 -51 59.5 -109t25.5 -93t9 -97l-557 -184q61 -137 194 -137q125 0 269 111l110 -207q-66 -41 -107.5 -63.5t-121.5 -45t-170 -22.5q-244 0 -365 147.5t-121 362.5zM193 1366h282l148 -266h-181zM344 604q0 -23 6 -63 l303 98q-6 18 -9 24.5t-12 28t-20.5 31.5t-27 24.5t-37 20.5t-47.5 6q-61 0 -108.5 -44t-47.5 -126z" />
<glyph unicode="&#xe9;" horiz-adv-x="987" d="M63 494q0 225 124 351t335 126q215 0 316 -140q39 -51 59.5 -109t25.5 -93t9 -97l-557 -184q61 -137 194 -137q125 0 269 111l110 -207q-66 -41 -107.5 -63.5t-121.5 -45t-170 -22.5q-244 0 -365 147.5t-121 362.5zM344 604q0 -23 6 -63l303 98q-6 18 -9 24.5t-12 28 t-20.5 31.5t-27 24.5t-37 20.5t-47.5 6q-61 0 -108.5 -44t-47.5 -126zM418 1100l149 266h281l-250 -266h-180z" />
<glyph unicode="&#xea;" horiz-adv-x="987" d="M63 494q0 225 124 351t335 126q215 0 316 -140q39 -51 59.5 -109t25.5 -93t9 -97l-557 -184q61 -137 194 -137q125 0 269 111l110 -207q-66 -41 -107.5 -63.5t-121.5 -45t-170 -22.5q-244 0 -365 147.5t-121 362.5zM188 1100l220 266h202l197 -266h-186l-119 119 l-121 -119h-193zM344 604q0 -23 6 -63l303 98q-6 18 -9 24.5t-12 28t-20.5 31.5t-27 24.5t-37 20.5t-47.5 6q-61 0 -108.5 -44t-47.5 -126z" />
<glyph unicode="&#xeb;" horiz-adv-x="987" d="M63 494q0 225 124 351t335 126q215 0 316 -140q39 -51 59.5 -109t25.5 -93t9 -97l-557 -184q61 -137 194 -137q125 0 269 111l110 -207q-66 -41 -107.5 -63.5t-121.5 -45t-170 -22.5q-244 0 -365 147.5t-121 362.5zM184 1224.5q0 53.5 38 92.5t93.5 39t93 -39t37.5 -92.5 t-37.5 -92t-93 -38.5t-93.5 38.5t-38 92zM344 604q0 -23 6 -63l303 98q-6 18 -9 24.5t-12 28t-20.5 31.5t-27 24.5t-37 20.5t-47.5 6q-61 0 -108.5 -44t-47.5 -126zM541 1224.5q0 53.5 37.5 92.5t93 39t93.5 -39t38 -92.5t-38 -92t-93.5 -38.5t-93 38.5t-37.5 92z" />
<glyph unicode="&#xec;" horiz-adv-x="548" d="M-2 1366h283l147 -266h-180zM76 891l330 67v-624q0 -150 8 -213.5t32 -120.5h-364q16 39 22.5 62.5t12.5 91t6 180.5v182q0 178 -9 242.5t-38 132.5z" />
<glyph unicode="&#xed;" horiz-adv-x="548" d="M76 891l330 67v-624q0 -150 8 -213.5t32 -120.5h-364q16 39 22.5 62.5t12.5 91t6 180.5v182q0 178 -9 242.5t-38 132.5zM139 1100l150 266h280l-250 -266h-180z" />
<glyph unicode="&#xee;" horiz-adv-x="548" d="M-31 1100l219 266h203l197 -266h-187l-118 119l-121 -119h-193zM76 891l330 67v-624q0 -150 8 -213.5t32 -120.5h-364q16 39 22.5 62.5t12.5 91t6 180.5v182q0 178 -9 242.5t-38 132.5z" />
<glyph unicode="&#xef;" horiz-adv-x="546" d="M-4 1227q0 53 33.5 92t83 39t84 -39t34.5 -92q0 -55 -34.5 -94t-83.5 -39q-47 0 -82 39t-35 94zM76 891l330 67v-624q0 -150 8 -213.5t32 -120.5h-364q16 39 22.5 62.5t12.5 91t6 180.5v182q0 178 -9 242.5t-38 132.5zM317 1227q0 53 35 92t84 39q47 0 82 -39t35 -92 q0 -55 -35 -94t-82 -39q-51 0 -85 39t-34 94z" />
<glyph unicode="&#xf0;" horiz-adv-x="1126" d="M63 477q0 250 128 372t341 122q82 0 134 -39q-33 100 -117 168l-365 -131l-82 168l277 96q-121 45 -246 57l184 168q188 -20 342 -123l345 123l81 -168l-260 -90q219 -233 219 -637q0 -580 -495 -579q-94 0 -177 26.5t-154 81.5t-113 154.5t-42 230.5zM356 477 q0 -260 193 -260q106 0 154.5 74t48.5 186.5t-48.5 186t-154.5 73.5q-193 0 -193 -260z" />
<glyph unicode="&#xf1;" horiz-adv-x="1132" d="M88 893l293 65l10 -77q133 90 293 90q90 0 154.5 -20.5t95.5 -47t47 -72t18 -72t2 -69.5v-356q0 -152 8.5 -214.5t32.5 -119.5h-364q23 53 32 113.5t9 220.5v244q0 29 -2 47t-13.5 45.5t-40 42t-73.5 14.5q-94 0 -176 -76v-317q0 -109 5 -174.5t12 -93t24 -66.5h-365 q23 53 32 114.5t9 219.5v180q0 182 -8 245.5t-35 133.5zM195 1163q106 193 243 193q41 0 217 -51q63 -20 99 -21q66 0 112 62l74 -60q-68 -90 -120 -132t-126 -42q-55 0 -159 35q-106 35 -148 35q-63 0 -111 -74z" />
<glyph unicode="&#xf2;" horiz-adv-x="1095" d="M63 477q0 252 129.5 373t356.5 121q242 0 362.5 -129t120.5 -365q0 -113 -30.5 -201t-80 -141t-115 -89t-129 -49t-128.5 -13q-94 0 -177 26.5t-154 81.5t-113 154.5t-42 230.5zM219 1366h283l147 -266h-180zM356 477q0 -260 193 -260q190 0 190 260t-190 260 q-193 0 -193 -260z" />
<glyph unicode="&#xf3;" horiz-adv-x="1095" d="M63 477q0 252 129.5 373t356.5 121q242 0 362.5 -129t120.5 -365q0 -113 -30.5 -201t-80 -141t-115 -89t-129 -49t-128.5 -13q-94 0 -177 26.5t-154 81.5t-113 154.5t-42 230.5zM356 477q0 -260 193 -260q190 0 190 260t-190 260q-193 0 -193 -260zM444 1100l150 266h280 l-249 -266h-181z" />
<glyph unicode="&#xf4;" horiz-adv-x="1095" d="M63 477q0 252 129.5 373t356.5 121q242 0 362.5 -129t120.5 -365q0 -113 -30.5 -201t-80 -141t-115 -89t-129 -49t-128.5 -13q-94 0 -177 26.5t-154 81.5t-113 154.5t-42 230.5zM244 1100l219 266h203l196 -266h-186l-119 119l-121 -119h-192zM356 477q0 -260 193 -260 q190 0 190 260t-190 260q-193 0 -193 -260z" />
<glyph unicode="&#xf5;" horiz-adv-x="1095" d="M63 477q0 252 129.5 373t356.5 121q242 0 362.5 -129t120.5 -365q0 -113 -30.5 -201t-80 -141t-115 -89t-129 -49t-128.5 -13q-94 0 -177 26.5t-154 81.5t-113 154.5t-42 230.5zM176 1163q106 193 244 193q41 0 217 -51q63 -20 98 -21q66 0 113 62l74 -60 q-68 -90 -120 -132t-126 -42q-55 0 -160 35q-106 35 -147 35q-63 0 -111 -74zM356 477q0 -260 193 -260q190 0 190 260t-190 260q-193 0 -193 -260z" />
<glyph unicode="&#xf6;" horiz-adv-x="1095" d="M63 477q0 252 129.5 373t356.5 121q242 0 362.5 -129t120.5 -365q0 -113 -30.5 -201t-80 -141t-115 -89t-129 -49t-128.5 -13q-94 0 -177 26.5t-154 81.5t-113 154.5t-42 230.5zM240 1224.5q0 53.5 37.5 92.5t93 39t93.5 -39t38 -92.5t-38 -92t-93.5 -38.5t-93 38.5 t-37.5 92zM356 477q0 -260 193 -260q190 0 190 260t-190 260q-193 0 -193 -260zM596 1224.5q0 53.5 38 92.5t93 39t93 -39t38 -92.5t-38 -92t-93 -38.5t-93 38.5t-38 92z" />
<glyph unicode="&#xf7;" horiz-adv-x="1024" d="M51 412v213h922v-213h-922zM340 114.5q0 71.5 51 122t123 50.5q70 0 121 -51.5t51 -120.5q0 -66 -51 -120t-119 -54q-72 0 -124 51t-52 122.5zM340 922q0 72 51 123t123 51q70 0 121 -52.5t51 -121.5q0 -66 -51 -119t-119 -53q-72 0 -124 51t-52 121z" />
<glyph unicode="&#xf8;" horiz-adv-x="1095" d="M47 -16l127 159q-55 70 -83 141.5t-28 192.5q0 252 129.5 373t356.5 121q145 0 260 -58l94 134l115 -93l-94 -127q109 -129 108 -350q0 -113 -30.5 -201t-80 -141t-115 -89t-129 -49t-128.5 -13q-147 0 -264 67l-125 -157zM328 489q0 -86 26 -172l301 422q-57 29 -110 29 q-61 0 -105.5 -26.5t-65 -59.5t-32.5 -79t-13 -67.5t-1 -46.5zM434 219q49 -29 115 -29q215 0 215 281q0 76 -23 174z" />
<glyph unicode="&#xf9;" horiz-adv-x="1132" d="M90 903l330 66v-578q0 -29 1 -45t7 -41.5t18.5 -40t38 -26t60.5 -11.5q82 0 174 76v309q0 164 -5 220.5t-28 121.5h348q-23 -68 -28 -122t-5 -220v-331q0 -143 43 -232l-299 -57l-14 69q-131 -78 -285 -77q-88 0 -150.5 20.5t-92 46t-46 70.5t-18.5 69.5t-2 67.5v268 q0 125 -6 199t-14.5 101.5t-26.5 76.5zM252 1366h283l147 -266h-180z" />
<glyph unicode="&#xfa;" horiz-adv-x="1132" d="M90 903l330 66v-578q0 -29 1 -45t7 -41.5t18.5 -40t38 -26t60.5 -11.5q82 0 174 76v309q0 164 -5 220.5t-28 121.5h348q-23 -68 -28 -122t-5 -220v-331q0 -143 43 -232l-299 -57l-14 69q-131 -78 -285 -77q-88 0 -150.5 20.5t-92 46t-46 70.5t-18.5 69.5t-2 67.5v268 q0 125 -6 199t-14.5 101.5t-26.5 76.5zM475 1100l150 266h280l-250 -266h-180z" />
<glyph unicode="&#xfb;" horiz-adv-x="1132" d="M90 903l330 66v-578q0 -29 1 -45t7 -41.5t18.5 -40t38 -26t60.5 -11.5q82 0 174 76v309q0 164 -5 220.5t-28 121.5h348q-23 -68 -28 -122t-5 -220v-331q0 -143 43 -232l-299 -57l-14 69q-131 -78 -285 -77q-88 0 -150.5 20.5t-92 46t-46 70.5t-18.5 69.5t-2 67.5v268 q0 125 -6 199t-14.5 101.5t-26.5 76.5zM262 1100l219 266h203l197 -266h-187l-119 119l-120 -119h-193z" />
<glyph unicode="&#xfc;" horiz-adv-x="1132" d="M90 903l330 66v-578q0 -29 1 -45t7 -41.5t18.5 -40t38 -26t60.5 -11.5q82 0 174 76v309q0 164 -5 220.5t-28 121.5h348q-23 -68 -28 -122t-5 -220v-331q0 -143 43 -232l-299 -57l-14 69q-131 -78 -285 -77q-88 0 -150.5 20.5t-92 46t-46 70.5t-18.5 69.5t-2 67.5v268 q0 125 -6 199t-14.5 101.5t-26.5 76.5zM258 1224.5q0 53.5 38 92.5t93 39t93 -39t38 -92.5t-38 -92t-93 -38.5t-93 38.5t-38 92zM614 1224.5q0 53.5 38 92.5t93.5 39t93.5 -39t38 -92.5t-38 -92t-93.5 -38.5t-93.5 38.5t-38 92z" />
<glyph unicode="&#xfd;" d="M-47 -383q289 276 430 545l-297 579q-74 147 -127 213h385q-6 -20 -6 -41q0 -37 43 -127l174 -391q184 315 184 510l-4 49h355q-199 -428 -260.5 -551.5t-174.5 -310.5q-256 -428 -319 -463q-25 -12 -66 -12h-317zM426 1100l149 266h281l-250 -266h-180z" />
<glyph unicode="&#xfe;" horiz-adv-x="1095" d="M72 1397l329 65v-551q94 59 203 60q186 0 301 -132t115 -364q0 -233 -124 -362t-298 -129q-92 0 -197 47v-109q0 -184 45 -305h-368q14 35 21 61.5t13.5 94t6.5 180.5v1059q0 131 -6.5 205.5t-13.5 103.5t-27 76zM399 266q53 -59 136 -59q61 0 103 28.5t60.5 75.5 t24.5 87t6 85q0 61 -11 111.5t-53 95.5t-112 45q-84 0 -154 -65v-404z" />
<glyph unicode="&#xff;" d="M-47 -383q289 276 430 545l-297 579q-74 147 -127 213h385q-6 -20 -6 -41q0 -37 43 -127l174 -391q184 315 184 510l-4 49h355q-199 -428 -260.5 -551.5t-174.5 -310.5q-256 -428 -319 -463q-25 -12 -66 -12h-317zM221 1224.5q0 53.5 38 92.5t93.5 39t93 -39t37.5 -92.5 t-37.5 -92t-93 -38.5t-93.5 38.5t-38 92zM578 1224.5q0 53.5 37.5 92.5t93 39t93.5 -39t38 -92.5t-38 -92t-93.5 -38.5t-93 38.5t-37.5 92z" />
<glyph unicode="&#x152;" horiz-adv-x="1826" d="M78 678q0 162 40 288t103.5 202.5t149.5 127t169 68.5t171 18q84 0 217 -10q102 -6 225 -6h487q25 0 34 -6t12 -33l14 -231q-55 25 -164 24h-279v-280h238q70 0 111 12v-260q-57 8 -164 8h-185v-352h342q100 0 170 20l-40 -217q-8 -35 -25.5 -43t-93.5 -8q-55 0 -198.5 2 t-199.5 2q-143 0 -286 -12q-156 -8 -160 -8q-164 0 -290 44t-199.5 112.5t-119.5 163.5t-62.5 185.5t-16.5 188.5zM397 690q0 -444 377 -444q104 0 180 43v788q-78 43 -186 43q-371 0 -371 -430z" />
<glyph unicode="&#x153;" horiz-adv-x="1644" d="M61 487q0 272 175 394q131 90 313 90q100 0 174 -29t98.5 -52.5t55.5 -64.5q109 145 309 146q174 0 278.5 -108.5t118.5 -334.5l-553 -182q55 -141 201 -141q121 0 262 114l113 -208q-61 -37 -101.5 -58.5t-123.5 -45t-169 -23.5q-219 0 -335 139q-131 -139 -349 -139 q-236 0 -351.5 145t-115.5 358zM354 477q0 -127 54 -203q43 -61 143 -61q190 0 190 264t-196 264q-94 0 -137 -61q-54 -74 -54 -203zM995 598q0 -29 6 -66l310 105q-12 37 -22.5 59.5t-45.5 50t-84 27.5q-70 0 -117 -47t-47 -129z" />
<glyph unicode="&#x178;" horiz-adv-x="1241" d="M-6 1366h455q4 -80 63 -211l145 -328l170 340q31 61 44.5 98.5t12.5 57.5t-3 43h417q-117 -150 -211 -326q-395 -721 -491 -868q-70 -102 -113 -141q-35 -31 -94 -31h-332q240 215 435 535l-263 491q-100 188 -235 340zM340 1607.5q0 57.5 40 96.5t95 39t95 -39t40 -96.5 t-40 -96t-95 -38.5t-95 38.5t-40 96zM717 1607.5q0 57.5 40 96.5t95 39t95 -39t40 -96.5t-40 -96t-95 -38.5t-95 38.5t-40 96z" />
<glyph unicode="&#x2c6;" horiz-adv-x="1024" d="M207 1100l219 266h203l196 -266h-186l-119 119l-121 -119h-192z" />
<glyph unicode="&#x2dc;" horiz-adv-x="1024" d="M139 1163q106 193 244 193q41 0 217 -51q63 -20 98 -21q66 0 113 62l74 -60q-68 -90 -120 -132t-126 -42q-55 0 -160 35q-106 35 -147 35q-63 0 -111 -74z" />
<glyph unicode="&#x2000;" horiz-adv-x="927" />
<glyph unicode="&#x2001;" horiz-adv-x="1857" />
<glyph unicode="&#x2002;" horiz-adv-x="927" />
<glyph unicode="&#x2003;" horiz-adv-x="1857" />
<glyph unicode="&#x2004;" horiz-adv-x="618" />
<glyph unicode="&#x2005;" horiz-adv-x="462" />
<glyph unicode="&#x2006;" horiz-adv-x="309" />
<glyph unicode="&#x2007;" horiz-adv-x="309" />
<glyph unicode="&#x2008;" horiz-adv-x="231" />
<glyph unicode="&#x2009;" horiz-adv-x="370" />
<glyph unicode="&#x200a;" horiz-adv-x="102" />
<glyph unicode="&#x2010;" horiz-adv-x="694" d="M80 354v250h534v-250h-534z" />
<glyph unicode="&#x2011;" horiz-adv-x="694" d="M80 354v250h534v-250h-534z" />
<glyph unicode="&#x2012;" horiz-adv-x="694" d="M80 354v250h534v-250h-534z" />
<glyph unicode="&#x2013;" horiz-adv-x="1024" d="M76 360v244h872v-244h-872z" />
<glyph unicode="&#x2014;" horiz-adv-x="2048" d="M82 360v244h1884v-244h-1884z" />
<glyph unicode="&#x2018;" horiz-adv-x="548" d="M84 1102q0 121 93 224.5t276 131.5l12 -28q-147 -74 -172 -197q113 -43 113 -150q0 -66 -49.5 -111.5t-116.5 -45.5q-70 0 -113 49t-43 127z" />
<glyph unicode="&#x2019;" horiz-adv-x="548" d="M84 877q154 76 172 196q-113 43 -113 148q0 66 49.5 112.5t118.5 46.5q68 0 111 -50t43 -126q0 -129 -97.5 -228t-271.5 -128z" />
<glyph unicode="&#x201a;" horiz-adv-x="620" d="M119 -205q154 76 172 197q-113 47 -113 147q0 66 49 113t119 47t112 -50t42 -126q0 -127 -96.5 -228.5t-272.5 -127.5z" />
<glyph unicode="&#x201c;" d="M119 1100q0 125 94 227.5t274 130.5l13 -28q-147 -74 -172 -197q113 -47 112 -150q0 -66 -49 -111.5t-117 -45.5q-70 0 -112.5 49t-42.5 125zM563 1100q0 125 94.5 227.5t274.5 130.5l12 -28q-150 -76 -172 -197q113 -47 113 -150q0 -66 -49.5 -111.5t-116.5 -45.5 q-70 0 -113 49t-43 125z" />
<glyph unicode="&#x201d;" d="M115 877q147 74 172 196q-113 43 -113 148q0 66 49 112.5t119 46.5t112 -50t42 -126q0 -115 -89.5 -220t-279.5 -136zM559 877q152 74 172 196q-113 47 -113 150q0 66 50.5 111.5t117.5 45.5q70 0 112 -49t42 -127q0 -117 -90 -222t-279 -134z" />
<glyph unicode="&#x201e;" d="M115 -205q150 74 172 197q-113 47 -113 147q0 66 49 113t119 47t112 -50t42 -126q0 -129 -98.5 -229.5t-270.5 -126.5zM559 -205q150 76 172 197q-113 41 -113 147q0 68 50.5 114t117.5 46q70 0 112 -50t42 -126q0 -131 -98.5 -230.5t-270.5 -125.5z" />
<glyph unicode="&#x2022;" d="M201 717q0 135 95 231t232.5 96t232.5 -96t95 -231q0 -137 -95 -232.5t-233 -95.5q-135 0 -231 95.5t-96 232.5z" />
<glyph unicode="&#x2026;" horiz-adv-x="1863" d="M145 151.5q0 69.5 49.5 117.5t117 48t115.5 -48t48 -117.5t-48 -118.5t-115.5 -49t-117 49t-49.5 118.5zM766 151.5q0 69.5 49 117.5t116.5 48t116 -48t48.5 -117.5t-48.5 -118.5t-116 -49t-116.5 49t-49 118.5zM1386 151.5q0 69.5 49.5 117.5t117 48t115.5 -48 t48 -117.5t-48 -118.5t-115.5 -49t-117 49t-49.5 118.5z" />
<glyph unicode="&#x202f;" horiz-adv-x="370" />
<glyph unicode="&#x2039;" horiz-adv-x="782" d="M152 455q111 84 172 147.5t149 175.5h201q-72 -180 -215 -323q106 -113 148 -178.5t67 -139.5h-201q-76 111 -144 178.5t-177 139.5z" />
<glyph unicode="&#x203a;" horiz-adv-x="782" d="M109 137q25 72 66.5 138.5t148.5 179.5q-141 141 -215 323h200q86 -113 147.5 -175t174.5 -148q-111 -72 -179.5 -140.5t-142.5 -177.5h-200z" />
<glyph unicode="&#x205f;" horiz-adv-x="462" />
<glyph unicode="&#x20ac;" d="M25 399l45 168h112q0 10 -1 28.5t-1 29t1 31t1 30.5h-24q-18 0 -131 -8l45 170h129q41 199 161.5 315.5t315.5 116.5q211 0 330 -84q10 -6 10 -20q0 -18 -8 -41l-64 -183q-98 88 -211 88q-178 0 -233 -192h129q80 0 217 18l-35 -190q-98 10 -166 10h-168q0 -8 -1 -24.5 t-1 -26.5q0 -12 1 -34.5t1 -33.5h103q66 0 217 21l-35 -191q-100 10 -168 11h-96q25 -94 82 -139.5t155 -45.5q145 0 271 144v-228q0 -31 -1 -42t-11.5 -24.5t-32.5 -25.5q-113 -63 -267 -63q-207 0 -328.5 113.5t-164.5 310.5h-47q-18 -1 -131 -9z" />
<glyph unicode="&#x2122;" horiz-adv-x="1984" d="M0 1188l51 135q10 29 23.5 36t50.5 7h547q111 0 162 6l-41 -123q-10 -31 -22.5 -36t-59.5 -5h-191v-477q0 -78 6 -109.5t33 -74.5h-291q25 43 32 73.5t7 110.5v477h-166q-71 0 -141 -20zM911 1366h226l274 -530l283 530h213q-16 -29 -23.5 -43t-12.5 -49t-5 -90v-453 q0 -78 7 -109.5t32 -74.5h-267q27 66 29 166l8 340l-256 -508h-37l-243 506l12 -324q4 -125 27 -180h-265q25 41 32 72.5t7 111.5v453q0 78 -9 111.5t-32 70.5z" />
<glyph unicode="&#xe000;" horiz-adv-x="955" d="M0 955h955v-955h-955v955z" />
<glyph unicode="&#xfb01;" horiz-adv-x="1241" d="M20 727l41 164q18 63 74 63h35v220q0 45 2 70.5t17.5 70.5t45 70.5t91 46t147.5 20.5q102 0 175 -22.5t73 -53.5q0 -20 -10 -49l-52 -121q-68 39 -122 39q-39 0 -58.5 -20.5t-22.5 -39t-3 -52.5v-179h323q133 0 334 9v-629q0 -156 9 -216.5t32 -117.5h-365 q16 37 22.5 61.5t12.5 92t6 180.5v270q0 80 -18 101.5t-107 21.5h-249v-393q0 -152 8 -213.5t33 -120.5h-365q23 51 32 112.5t9 221.5v393h-150zM805 1249q0 63 44 106.5t105 43.5q63 0 107.5 -44t44.5 -105.5t-44 -105.5t-108 -44q-61 0 -105 44t-44 105z" />
<glyph unicode="&#xfb02;" horiz-adv-x="1241" d="M20 727l41 164q18 63 74 63h35v220q0 45 2 71.5t17.5 71.5t45 69.5t89 45t145.5 20.5q102 0 174 -23.5t72 -54.5q0 -18 -13 -47l-49 -121q-61 39 -123 39q-37 0 -55 -20.5t-20 -40t-2 -51.5v-179h176l-25 -141q-6 -43 -27.5 -64.5t-76.5 -21.5h-47v-393q0 -152 8 -213.5 t33 -120.5h-365q23 51 32 112.5t9 221.5v393h-150zM780 1397l330 65v-1128q0 -152 8 -213.5t33 -120.5h-365q16 37 22.5 61.5t12.5 92t6 180.5v678q0 184 -9 248.5t-38 136.5z" />
<glyph unicode="&#xfb03;" horiz-adv-x="1863" d="M1391 891l330 67v-624q0 -150 8 -213.5t32 -120.5h-364q16 39 22.5 62.5t12.5 91t6 180.5v182q0 178 -9 242.5t-38 132.5zM1415 1249q0 63 44 106.5t106 43.5q63 0 107 -43t44 -107q0 -61 -44 -105t-107 -44q-61 0 -105.5 44t-44.5 105zM677 727l41 164q18 63 74 63h35 v220q0 45 2 71.5t17.5 71.5t45 69.5t89 45t145.5 20.5q98 0 172 -22.5t74 -55.5q0 -18 -13 -47l-49 -121q-61 39 -123 39q-37 0 -55 -20.5t-20 -40t-2 -51.5v-179h176l-25 -141q-6 -43 -27.5 -64.5t-76.5 -21.5h-47v-393q0 -152 8 -213.5t33 -120.5h-365q23 51 32 112.5 t9 221.5v393h-150zM20 727l41 164q18 63 74 63h35v220q0 45 2 71.5t17.5 71.5t45 69.5t89 45t145.5 20.5q98 0 172 -22.5t74 -55.5q0 -18 -13 -47l-49 -121q-61 39 -123 39q-37 0 -55 -20.5t-20 -40t-2 -51.5v-179h176l-25 -141q-6 -43 -27.5 -64.5t-76.5 -21.5h-47v-393 q0 -152 8 -213.5t33 -120.5h-365q23 51 32 112.5t9 221.5v393h-150z" />
<glyph unicode="&#xfb04;" horiz-adv-x="1863" d="M1403 1397l330 65v-1126q0 -154 8 -216.5t33 -119.5h-365q16 39 22.5 63.5t12.5 92t6 180.5v676q0 186 -9 250.5t-38 134.5zM677 727l41 164q18 63 74 63h35v220q0 45 2 71.5t17.5 71.5t45 69.5t89 45t145.5 20.5q98 0 172 -22.5t74 -55.5q0 -18 -13 -47l-49 -121 q-61 39 -123 39q-37 0 -55 -20.5t-20 -40t-2 -51.5v-179h176l-25 -141q-6 -43 -27.5 -64.5t-76.5 -21.5h-47v-393q0 -152 8 -213.5t33 -120.5h-365q23 51 32 112.5t9 221.5v393h-150zM20 727l41 164q18 63 74 63h35v220q0 45 2 71.5t17.5 71.5t45 69.5t89 45t145.5 20.5 q98 0 172 -22.5t74 -55.5q0 -18 -13 -47l-49 -121q-61 39 -123 39q-37 0 -55 -20.5t-20 -40t-2 -51.5v-179h176l-25 -141q-6 -43 -27.5 -64.5t-76.5 -21.5h-47v-393q0 -152 8 -213.5t33 -120.5h-365q23 51 32 112.5t9 221.5v393h-150z" />
</font>
</defs>
</svg>
